<svg width="574" height="155" viewBox="0 0 574 155" fill="none" xmlns="http://www.w3.org/2000/svg">
<path d="M331.96 13.3574C337.752 18.2378 341.149 23.9539 342.272 31.4394C342.976 43.6398 336.22 53.8956 330.113 63.8837C327.189 68.7571 324.938 72.5927 324.96 78.3574C325.818 80.5026 325.818 80.5026 327.335 82.1074C330.921 86.3944 331.248 89.78 330.96 95.3574C329.96 98.2949 329.96 98.2949 328.96 100.357C332.414 99.6566 332.414 99.6566 335.96 98.3574C337.244 96.3736 337.244 96.3736 337.96 94.3574C339.445 93.8624 339.445 93.8624 340.96 93.3574C341.95 94.0174 342.94 94.6774 343.96 95.3574C348.096 95.3793 348.096 95.3793 351.96 94.3574C353.852 91.4903 353.852 91.4903 354.96 88.3574C357.96 86.3574 357.96 86.3574 360.522 86.4199C362.96 87.3574 362.96 87.3574 364.272 89.9199C364.499 90.7243 364.726 91.5286 364.96 92.3574C367.941 91.9158 369.101 91.2372 371.46 89.2324C373.96 87.3574 373.96 87.3574 376.147 87.3574C378.466 88.6366 379.019 89.9273 379.96 92.3574C384.97 92.5272 388.346 92.4665 392.96 90.3574C393.95 90.3574 394.94 90.3574 395.96 90.3574C396.29 91.0174 396.62 91.6774 396.96 92.3574C397.95 92.6874 398.94 93.0174 399.96 93.3574C400.009 92.535 400.058 91.7125 400.108 90.8652C400.576 83.8811 401.374 77.177 402.96 70.3574C404.835 69.7324 404.835 69.7324 406.96 69.3574C408.96 71.3574 408.96 71.3574 409.155 73.7402C409.12 75.0976 409.12 75.0976 409.085 76.4824C409.067 77.3925 409.049 78.3025 409.03 79.2402C408.995 80.2882 408.995 80.2882 408.96 81.3574C410.445 80.8624 410.445 80.8624 411.96 80.3574C417.577 79.6966 420.658 80.9432 425.261 83.873C427.206 85.5718 428.053 86.949 428.96 89.3574C428.678 93.7796 427.429 96.708 424.96 100.357C428.526 99.8973 431.274 98.7494 434.46 97.1699C438.561 95.2597 438.561 95.2597 442.022 96.1074C442.662 96.5199 443.301 96.9324 443.96 97.3574C443.96 98.0174 443.96 98.6774 443.96 99.3574C453.297 101.637 461.76 102.597 471.355 101.868C478.129 101.356 484.855 101.264 491.647 101.295C493.182 101.301 493.182 101.301 494.747 101.307C497.152 101.32 499.556 101.336 501.96 101.357C502.29 102.017 502.62 102.677 502.96 103.357C500.96 106.357 500.96 106.357 498.457 106.866C497.423 106.927 496.389 106.989 495.323 107.053C494.188 107.129 493.053 107.205 491.884 107.283C490.692 107.349 489.5 107.415 488.272 107.482C485.935 107.629 483.598 107.777 481.261 107.928C480.16 107.997 479.059 108.066 477.925 108.137C474.563 108.387 471.29 108.838 467.96 109.357C459.434 110.085 449.452 109.147 441.761 105.24C438.746 103.762 436.15 104.686 432.96 105.357C432.197 105.708 431.434 106.059 430.647 106.42C426.542 107.852 422.267 107.876 417.96 107.357C417.3 106.697 416.64 106.037 415.96 105.357C416.101 99.5899 419.066 95.1627 421.96 90.3574C418.023 88.16 415.447 87.1739 410.96 87.3574C410.94 88.2546 410.92 89.1518 410.9 90.0761C410.821 93.4385 410.735 96.8005 410.643 100.163C410.605 101.611 410.57 103.06 410.538 104.509C410.492 106.605 410.434 108.7 410.374 110.795C410.343 112.052 410.311 113.309 410.279 114.603C409.927 118.742 409.064 122.361 407.96 126.357C408.918 126.352 409.877 126.347 410.865 126.342C427.802 126.257 444.72 126.243 461.647 126.857C472.426 127.247 483.175 127.609 493.96 127.357C494.801 127.339 495.642 127.322 496.509 127.303C499.16 127.237 501.81 127.146 504.46 127.045C505.691 127.011 505.691 127.011 506.947 126.977C509.487 126.892 509.487 126.892 512.96 126.357C513.62 125.367 514.28 124.377 514.96 123.357C517.585 123.17 517.585 123.17 519.96 123.357C520.62 125.007 521.28 126.657 521.96 128.357C519.114 131.399 517.265 133.217 512.935 133.48C512.157 133.48 511.378 133.479 510.575 133.478C509.679 133.479 508.783 133.48 507.86 133.482C506.879 133.478 505.899 133.475 504.889 133.471C503.855 133.471 502.82 133.471 501.755 133.471C498.33 133.471 494.905 133.463 491.48 133.455C489.107 133.453 486.735 133.452 484.363 133.451C478.114 133.447 471.865 133.437 465.616 133.426C459.242 133.416 452.868 133.411 446.493 133.406C433.982 133.395 421.471 133.379 408.96 133.357C408.917 136.462 408.923 139.189 409.585 142.232C410.085 146.399 409.137 149.342 407.96 153.357C406.64 153.687 405.32 154.017 403.96 154.357C400.504 150.76 400.23 146.863 399.772 142.107C399.691 141.362 399.609 140.617 399.524 139.85C399.325 138.02 399.141 136.189 398.96 134.357C394.034 134.332 389.109 134.314 384.183 134.302C382.512 134.297 380.842 134.291 379.171 134.282C363.836 133.67 363.836 133.67 348.96 136.42C344.382 137.85 339.723 137.706 334.96 137.357C333.96 136.357 333.96 136.357 333.897 133.795C333.918 132.991 333.939 132.186 333.96 131.357C339.822 128.89 345.7 128.817 351.964 128.506C353.698 128.41 353.698 128.41 355.467 128.313C359.152 128.111 362.837 127.922 366.522 127.732C369.006 127.598 371.49 127.462 373.974 127.326C378.523 127.08 383.072 126.835 387.622 126.601C388.991 126.53 388.991 126.53 390.387 126.458C392.91 126.359 395.435 126.357 397.96 126.357C397.96 117.777 397.96 109.197 397.96 100.357C389.868 98.8219 389.868 98.8219 385.96 100.357C379.708 100.82 379.708 100.82 376.335 98.7324C375.159 98.0518 375.159 98.0518 373.96 97.3574C372.277 97.9807 370.612 98.6545 368.96 99.3574C367.174 99.7202 365.377 100.028 363.573 100.287C362.552 100.443 361.53 100.599 360.478 100.76C358.361 101.072 356.244 101.379 354.126 101.682C348.038 102.621 342.752 103.982 337.148 106.569C333.429 107.909 330.759 107.29 326.96 106.357C325.97 105.697 324.98 105.037 323.96 104.357C321.649 104.666 319.868 105.4 317.753 106.381C311.865 108.44 304.356 108.523 298.444 106.494C296.57 105.511 294.77 104.453 292.96 103.357C289.492 102.173 288.216 102.28 284.647 103.357C280.198 104.564 277.457 104.146 272.96 103.357C272.63 101.707 272.3 100.057 271.96 98.3574C271.217 98.8524 271.217 98.8524 270.46 99.3574C266.869 100.794 263.815 100.486 259.96 100.357C260.62 101.347 261.28 102.337 261.96 103.357C261.585 106.045 261.585 106.045 260.96 108.357C258.991 109.014 258.991 109.014 257.022 109.67C256.205 109.95 255.388 110.229 254.546 110.518C252.88 111.059 251.197 111.55 249.499 111.978C245.321 113.096 243.341 113.93 240.398 117.232C238.258 121.703 238.797 126.437 239.112 131.271C238.936 134.836 238.15 136.567 235.96 139.357C233.335 139.732 233.335 139.732 230.96 139.357C229.089 137.486 229.786 134.419 229.773 131.92C229.804 125.779 230.516 120.314 231.96 114.357C223.545 115.347 223.545 115.347 214.96 116.357C214.92 122.198 214.92 122.198 215.616 127.768C215.752 128.53 215.887 129.292 216.026 130.078C216.169 130.851 216.313 131.624 216.46 132.42C218.875 145.528 218.875 145.528 216.96 149.357C214.98 149.357 213 149.357 210.96 149.357C210.589 148.409 210.218 147.46 209.835 146.482C206.45 138.699 202.813 131.293 194.96 127.357C185.54 123.868 175.428 124.2 165.523 124.232C163.777 124.227 163.777 124.227 161.997 124.221C155.997 124.227 150.112 124.412 144.153 125.125C134.196 126.181 134.196 126.181 129.96 123.357C130.273 121.482 130.273 121.482 130.96 119.357C135.295 116.467 139.171 116.245 144.292 116.146C145.843 116.107 145.843 116.107 147.425 116.067C149.082 116.025 149.082 116.025 150.773 115.982C162.701 115.607 174.358 114.366 186.171 112.73C190.593 112.139 195.025 111.65 199.46 111.17C200.61 111.044 200.61 111.044 201.782 110.916C203.508 110.728 205.234 110.543 206.96 110.357C206.774 109.409 206.589 108.46 206.398 107.482C205.96 104.357 205.96 104.357 206.96 102.357C199.866 102.733 199.866 102.733 193.023 104.42C188.124 105.92 183.042 105.839 177.96 105.357C177.299 105.003 176.637 104.648 175.956 104.283C173.09 102.954 171.196 103.633 168.148 104.295C164.434 105.021 162.207 105.406 158.46 104.67C153.573 104.234 150.28 106.128 145.925 108.228C142.693 109.459 140.389 109.635 136.96 109.357C136.3 109.027 135.64 108.697 134.96 108.357C133.206 108.451 131.456 108.61 129.71 108.795C111.174 110.312 91.5181 111.222 74.96 101.357C75.1211 102.044 75.2823 102.732 75.4483 103.439C76.0175 106.685 76.1287 109.75 76.1475 113.045C76.1617 114.183 76.1759 115.321 76.1905 116.494C75.96 119.357 75.96 119.357 73.96 121.357C71.335 120.982 71.335 120.982 68.96 120.357C67.0988 113.996 66.6602 108.149 66.5225 101.545C66.2583 93.7564 65.7361 86.7103 62.96 79.3574C62.6945 78.5375 62.4289 77.7177 62.1553 76.873C58.309 65.9128 50.7349 57.8467 42.542 49.9003C40.4353 47.8254 38.4905 45.7378 36.585 43.4824C31.8749 37.9606 26.6275 32.9395 21.4632 27.8476C20.0663 26.4628 18.6863 25.0611 17.3077 23.6582C13.1642 19.5975 8.77474 16.2153 3.5225 13.7324C0.96 12.3574 0.96 12.3574 0.0225 10.2949C-0.04 8.35737 -0.04 8.35737 0.96 6.35737C5.07359 6.04094 6.90462 6.70563 10.21 9.10737C14.4232 11.7472 18.466 13.2605 23.2842 14.3417C24.0119 14.5085 24.7396 14.6752 25.4893 14.847C36.0573 17.1583 46.8064 18.4426 57.5225 19.8574C125.777 28.9746 125.777 28.9747 137.085 37.7949C138.96 40.3574 138.96 40.3574 139.21 42.7949C135.073 51.2752 124.792 54.6189 116.71 58.3574C114.182 59.54 111.656 60.7285 109.132 61.9199C108.52 62.2083 107.908 62.4967 107.278 62.7938C90.0962 70.5569 90.0962 70.5569 77.96 84.3574C77.5467 87.416 77.5009 90.3021 77.96 93.3574C82.3969 98.8295 91.1821 101.204 97.96 102.357C99.7539 102.446 101.551 102.488 103.347 102.49C104.879 102.492 104.879 102.492 106.442 102.494C107.5 102.49 108.558 102.486 109.647 102.482C111.205 102.488 111.205 102.488 112.794 102.494C119.243 102.486 125.558 102.139 131.96 101.357C132.022 100.636 132.084 99.9136 132.148 99.1699C133.243 95.3767 134.896 93.8086 137.96 91.3574C141.969 89.9628 143.668 90.2552 147.71 91.6699C150.96 93.3574 150.96 93.3574 152.96 95.3574C154.94 93.3774 154.94 93.3774 156.96 91.3574C157.95 91.6874 158.94 92.0174 159.96 92.3574C159.96 94.3374 159.96 96.3174 159.96 98.3574C165.945 97.4082 165.945 97.4082 171.21 94.6699C172.96 93.3574 172.96 93.3574 175.71 93.6699C176.453 93.8968 177.195 94.1236 177.96 94.3574C178.29 95.6774 178.62 96.9974 178.96 98.3574C185.33 98.6973 189.235 98.3443 194.96 95.3574C197.653 95.1365 200.251 95.27 202.96 95.3574C205.257 95.4734 205.257 95.4734 206.96 94.3574C207.434 93.2024 207.909 92.0474 208.398 90.8574C208.913 89.7024 209.429 88.5474 209.96 87.3574C212.648 86.4199 212.648 86.4199 214.96 86.3574C216.337 91.4514 215.526 95.538 214.433 100.576C213.792 103.873 213.792 103.873 213.96 109.357C221.385 108.367 221.385 108.367 228.96 107.357C228.156 106.409 227.351 105.46 226.523 104.482C223.304 100.055 223.078 95.7044 222.96 90.3574C224.28 89.6974 225.6 89.0374 226.96 88.3574C230.295 91.3475 232.175 94.2524 233.96 98.3574C233.96 99.0174 233.96 99.6774 233.96 100.357C234.62 100.357 235.28 100.357 235.96 100.357C236.115 99.2746 236.115 99.2746 236.273 98.1699C237.02 95.1125 238.24 92.9741 239.96 90.3574C241.61 90.6874 243.26 91.0174 244.96 91.3574C245.29 92.6774 245.62 93.9974 245.96 95.3574C249.263 94.2887 251.494 92.9857 254.023 90.6699C256.96 88.3574 256.96 88.3574 259.335 88.5449C259.871 88.813 260.407 89.0811 260.96 89.3574C261.29 90.6774 261.62 91.9974 261.96 93.3574C262.971 93.048 263.981 92.7386 265.022 92.4199C268.633 91.3809 272.229 90.8143 275.96 90.3574C276.62 92.6674 277.28 94.9774 277.96 97.3574C278.78 97.1524 279.6 96.9475 280.444 96.7363C287.202 95.0468 287.202 95.0468 293.96 93.3574C294.536 90.562 294.536 90.562 293.96 87.3574C291.657 85.4256 289.651 84.0311 287.085 82.5449C281.21 78.9067 276.063 75.0823 271.038 70.2988C269.301 68.6755 267.583 67.346 265.647 65.9824C260.976 61.4198 258.348 55.8047 257.616 49.3027C257.574 45.3563 257.707 42.1151 258.96 38.3574C258.217 38.1924 257.475 38.0274 256.71 37.8574C252.621 35.6268 251.341 32.7187 249.96 28.3574C249.063 23.8562 248.896 20.1513 251.288 16.1191C253.054 14.0073 254.905 12.1869 256.96 10.3574C257.442 9.87398 257.924 9.39058 258.421 8.89253C277.094 -7.35958 313.548 1.41339 331.96 13.3574ZM258.96 16.3574C256.485 20.0706 256.302 23.0529 256.96 27.3574C258.716 30.9354 259.719 32.8609 263.46 34.3574C265.919 34.5724 265.919 34.5724 267.581 33.3808C274.883 30.2396 286.695 31.4878 294.085 33.9824C301.867 37.4143 307.602 41.8239 311.855 49.291C313.472 53.7767 313.617 58.168 313.559 62.9116C313.524 65.1615 313.524 65.1615 313.96 68.3574C315.831 70.372 315.831 70.372 317.96 71.3574C319.636 68.696 321.303 66.0301 322.96 63.3574C323.452 62.5633 323.945 61.7693 324.452 60.9511C331.029 50.183 336.196 41.2766 334.96 28.3574C333.447 22.7207 330.256 19.0022 325.495 15.7363C307.457 5.92487 274.921 -0.0235996 258.96 16.3574ZM24.96 21.3574C28.9453 26.8765 32.8761 32.0039 38.335 36.1699C41.1758 38.5372 43.4215 41.0861 45.8077 43.9003C47.4452 45.7697 49.1035 47.5629 50.8311 49.3457C56.8484 55.5943 61.6567 61.4852 65.753 69.1894C66.1513 69.9048 66.5496 70.6203 66.96 71.3574C67.29 71.3574 67.62 71.3574 67.96 71.3574C68.2985 68.6704 68.6309 65.983 68.96 63.2949C69.0554 62.5427 69.1508 61.7905 69.2491 61.0156C69.68 57.4604 69.96 54.0731 69.96 50.4824C69.96 47.2469 70.5602 45.2444 71.96 42.3574C73.8975 42.7324 73.8975 42.7324 75.96 43.3574C78.7996 49.0367 76.5941 56.6335 75.4053 62.5605C74.7249 66.8337 74.7916 71.0441 74.96 75.3574C75.4937 74.9939 76.0273 74.6303 76.5772 74.2558C77.3223 73.7531 78.0673 73.2503 78.835 72.7324C79.5543 72.2451 80.2736 71.7578 81.0147 71.2558C88.8735 66.1903 96.9605 61.694 105.272 57.4199C107.294 56.3708 109.314 55.3213 111.335 54.2714C113.972 52.9045 116.609 51.5383 119.249 50.1767C121.094 49.2231 122.933 48.2595 124.772 47.2949C125.748 46.7883 126.724 46.2817 127.73 45.7597C130.225 44.4029 130.225 44.4029 131.96 41.3574C125.254 35.2348 114.913 34.4688 106.335 33.1074C105.08 32.9027 103.824 32.6979 102.531 32.487C87.7514 30.0955 72.9335 27.9363 58.1197 25.7685C56.6405 25.5512 56.6406 25.5512 55.1315 25.3295C53.2899 25.0592 51.4479 24.7904 49.6057 24.5235C44.1651 23.7243 38.7645 22.7908 33.3642 21.7526C30.5366 21.2878 27.8198 21.2028 24.96 21.3574ZM270.96 37.3574C274.416 45.624 285.931 50.2324 293.272 54.6699C294.144 55.1977 295.016 55.7256 295.915 56.2695C296.751 56.769 297.587 57.2685 298.448 57.7832C299.196 58.2309 299.944 58.6786 300.715 59.1398C303.072 60.418 305.454 61.4094 307.96 62.3574C308.523 55.6008 306.78 50.9663 302.605 45.623C298.031 40.6695 292.584 38.3836 285.96 37.3574C283.345 37.2896 280.76 37.2624 278.147 37.2949C277.455 37.2994 276.762 37.3039 276.048 37.3085C274.352 37.3202 272.656 37.3382 270.96 37.3574ZM264.96 44.3574C263.71 47.8794 264.189 49.8119 265.585 53.2324C265.907 54.0548 266.23 54.8772 266.562 55.7246C269.75 61.7272 274.341 65.7839 279.647 69.8574C280.566 70.5664 280.566 70.5664 281.502 71.2897C288.77 77.1446 288.77 77.1446 296.96 81.3574C300.177 80.3715 301.641 78.8669 303.272 75.9824C305.171 72.708 305.171 72.708 304.757 70.2988C302.019 63.6297 291.853 59.9983 285.834 56.6882C280.091 53.5053 275.002 49.8689 269.944 45.6933C267.944 44.0781 267.944 44.0781 264.96 44.3574ZM309.96 75.3574C308.328 77.2646 308.328 77.2646 306.772 79.6699C306.222 80.4704 305.672 81.2709 305.105 82.0957C304.727 82.842 304.349 83.5884 303.96 84.3574C305.167 87.9794 306.323 88.5298 309.397 90.6699C313.222 93.5233 315.127 95.4771 315.96 100.357C316.95 100.027 317.94 99.6974 318.96 99.3574C318.638 98.5259 318.315 97.6945 317.983 96.8378C316.509 91.8221 316.612 86.9214 316.499 81.7207C316.285 78.3127 316.285 78.3127 314.046 76.4003C312.051 75.2083 312.051 75.2083 309.96 75.3574ZM321.96 87.3574C322.29 89.0074 322.62 90.6574 322.96 92.3574C323.29 92.3574 323.62 92.3574 323.96 92.3574C323.96 90.7074 323.96 89.0574 323.96 87.3574C323.3 87.3574 322.64 87.3574 321.96 87.3574ZM300.96 91.3574C300.63 93.6674 300.3 95.9774 299.96 98.3574C302.877 98.5242 302.877 98.5242 305.96 98.3574C306.62 97.6974 307.28 97.0374 307.96 96.3574C306.337 94.6485 304.667 92.9829 302.96 91.3574C302.3 91.3574 301.64 91.3574 300.96 91.3574ZM139.96 97.3574C139.63 98.6774 139.3 99.9974 138.96 101.357C140.94 100.697 142.92 100.037 144.96 99.3574C144.3 98.6974 143.64 98.0374 142.96 97.3574C141.97 97.3574 140.98 97.3574 139.96 97.3574ZM255.96 97.3574C255.63 98.0174 255.3 98.6774 254.96 99.3574C256.28 99.0274 257.6 98.6974 258.96 98.3574C257.97 98.0274 256.98 97.6974 255.96 97.3574ZM241.96 101.357C240.571 103.319 239.234 105.319 237.96 107.357C241.445 106.712 243.988 105.256 246.96 103.357C244.284 101.172 244.284 101.172 241.96 101.357ZM198.21 117.357C196.733 117.636 196.733 117.636 195.226 117.92C194.478 118.064 193.73 118.209 192.96 118.357C195.207 120.819 197.469 122.344 200.398 123.92C201.159 124.334 201.921 124.747 202.706 125.174C204.777 126.261 206.868 127.311 208.96 128.357C208.63 124.397 208.3 120.437 207.96 116.357C204.48 116.357 201.605 116.711 198.21 117.357Z" fill="white"/>
<path d="M514.96 123.357C517.585 123.17 517.585 123.17 519.96 123.357C520.95 125.832 520.95 125.832 521.96 128.357C518.762 131.776 516.878 133.273 512.068 133.484C510.886 133.485 509.704 133.486 508.486 133.487C507.504 133.489 507.504 133.489 506.503 133.492C504.326 133.497 502.149 133.494 499.972 133.49C498.434 133.491 496.895 133.492 495.357 133.493C492.112 133.495 488.866 133.492 485.62 133.488C481.556 133.482 477.492 133.485 473.428 133.491C453.25 133.516 433.122 133.197 412.96 132.357C414.96 130.357 414.96 130.357 418.96 129.357C415.33 129.027 411.7 128.697 407.96 128.357C407.96 127.697 407.96 127.037 407.96 126.357C425.864 126.26 443.752 126.208 461.647 126.857C472.426 127.247 483.175 127.609 493.96 127.357C494.801 127.34 495.642 127.322 496.509 127.303C499.16 127.237 501.81 127.146 504.46 127.045C505.281 127.023 506.102 127 506.947 126.977C509.487 126.892 509.487 126.892 512.96 126.357C513.62 125.367 514.28 124.377 514.96 123.357Z" fill="white"/>
<path d="M40.96 41.3574C42.1325 42.3086 43.2978 43.2686 44.46 44.2324C45.4345 45.0329 45.4345 45.0329 46.4287 45.8496C46.934 46.3472 47.4393 46.8448 47.96 47.3574C47.96 48.0174 47.96 48.6774 47.96 49.3574C48.852 49.5804 49.744 49.8034 50.6631 50.0332C56.6901 52.454 61.2603 58.5873 63.9092 64.4629C64.3975 66.2324 64.3975 66.2324 64.96 69.3574C65.3312 70.2855 65.7025 71.2137 66.085 72.1699C66.96 74.3574 66.96 74.3574 66.96 76.3574C67.62 76.3574 68.28 76.3574 68.96 76.3574C69.29 74.3774 69.62 72.3974 69.96 70.3574C72.96 73.9824 72.96 73.9824 72.96 77.3574C74.94 76.6974 76.92 76.0374 78.96 75.3574C80.2234 79.1476 79.4572 80.7326 77.96 84.3574C76.97 84.8524 76.97 84.8524 75.96 85.3574C75.7816 89.9055 75.9621 93.2368 77.96 97.3574C77.3 97.3574 76.64 97.3574 75.96 97.3574C74.2235 100.83 73.8564 103.527 73.96 107.357C71.499 106.268 71.499 106.268 68.96 104.357C68.3584 101.354 68.3584 101.354 68.335 97.7949C68.0485 90.1072 67.6228 82.9302 61.96 77.3574C61.5681 76.2024 61.1762 75.0474 60.7725 73.8574C58.1255 66.2545 52.6015 59.951 46.96 54.3574C45.9413 52.7021 44.9419 51.0348 43.96 49.3574C43.2175 48.4912 42.475 47.6249 41.71 46.7324C41.1325 45.9487 40.555 45.1649 39.96 44.3574C40.29 43.3674 40.62 42.3774 40.96 41.3574Z" fill="white"/>
<path d="M175.71 93.6703C176.824 94.0107 176.824 94.0107 177.96 94.3578C178.455 96.3378 178.455 96.3378 178.96 98.3578C186.524 98.5637 186.524 98.5637 193.96 97.3578C193.3 98.3478 192.64 99.3378 191.96 100.358C189.394 100.799 189.394 100.799 186.397 100.92C183.482 101.004 183.482 101.004 180.96 101.358C180.63 102.018 180.3 102.678 179.96 103.358C181.773 103.217 183.585 103.07 185.397 102.92C186.407 102.839 187.416 102.758 188.456 102.674C190.896 102.626 190.896 102.626 191.96 101.358C194.486 101.121 196.991 100.936 199.522 100.795C200.233 100.752 200.944 100.709 201.677 100.664C203.438 100.558 205.199 100.457 206.96 100.358C208.939 103.994 209.485 107.242 209.96 111.358C206.031 113.209 202.972 113.578 198.647 113.483C197.579 113.465 196.51 113.447 195.409 113.428C194.601 113.405 193.793 113.382 192.96 113.358C192.63 114.018 192.3 114.678 191.96 115.358C190.568 115.296 190.568 115.296 189.147 115.233C185.014 115.233 181.136 115.993 177.089 116.776C173.513 117.441 169.932 118.007 166.335 118.545C165.146 118.725 163.958 118.904 162.733 119.088C161.818 119.177 160.903 119.266 159.96 119.358C159.63 119.028 159.3 118.698 158.96 118.358C155.729 118.265 152.499 118.505 149.272 118.67C148.373 118.706 147.474 118.741 146.548 118.778C141.684 119.017 137.527 119.502 132.96 121.358C132.96 121.688 132.96 122.018 132.96 122.358C140.705 122.492 148.364 122.225 156.083 121.626C159.904 121.358 163.246 121.377 166.96 122.358C166.96 122.688 166.96 123.018 166.96 123.358C162.981 123.697 159.002 124.028 155.022 124.358C153.905 124.453 152.789 124.549 151.638 124.647C134.059 126.09 134.059 126.09 129.96 123.358C130.272 121.483 130.272 121.483 130.96 119.358C135.295 116.468 139.171 116.246 144.292 116.147C145.326 116.121 146.36 116.094 147.425 116.067C148.53 116.039 149.634 116.011 150.772 115.983C162.701 115.608 174.358 114.366 186.171 112.731C190.593 112.139 195.025 111.651 199.46 111.17C200.226 111.087 200.993 111.003 201.782 110.917C203.508 110.729 205.234 110.543 206.96 110.358C206.774 109.409 206.589 108.46 206.397 107.483C205.96 104.358 205.96 104.358 206.96 102.358C199.866 102.734 199.866 102.734 193.022 104.42C188.124 105.92 183.042 105.839 177.96 105.358C177.3 105.002 176.64 104.646 175.96 104.28C173.071 102.948 171.147 103.672 168.085 104.358C163.412 105.26 160.358 105.557 155.96 103.358C155.96 103.028 155.96 102.698 155.96 102.358C157.61 102.358 159.26 102.358 160.96 102.358C160.3 101.038 159.64 99.7178 158.96 98.3578C159.973 98.1935 159.973 98.1935 161.007 98.0258C162.345 97.788 162.345 97.788 163.71 97.5453C164.592 97.3945 165.473 97.2437 166.382 97.0883C170.207 96.0044 171.683 93.2127 175.71 93.6703Z" fill="white"/>
<path d="M293.96 35.3574C299.212 37.6904 303.061 40.0131 306.96 44.3574C307.795 45.069 307.795 45.069 308.647 45.7949C310.537 48.0449 311.074 50.5823 311.96 53.3574C312.62 54.0174 313.28 54.6774 313.96 55.3574C313.3 55.3574 312.64 55.3574 311.96 55.3574C312.02 57.629 312.109 59.8998 312.21 62.1699C312.256 63.4345 312.303 64.6991 312.351 66.002C312.656 69.3892 312.656 69.3892 314.819 71.3691C317.066 72.7026 317.066 72.7026 319.96 71.3574C320.62 70.6974 321.28 70.0374 321.96 69.3574C322.62 69.3574 323.28 69.3574 323.96 69.3574C323.568 70.038 323.176 70.7187 322.772 71.4199C321.824 74.8477 322.435 76.4518 323.96 79.6035C325.069 81.6151 325.069 81.6151 327.085 84.3574C329.252 87.824 329.807 90.2913 329.96 94.3574C329.3 95.3474 328.64 96.3374 327.96 97.3574C328.272 100.004 328.272 100.004 328.96 102.357C332.302 102.432 334.764 102.423 337.96 101.357C339.169 99.3573 339.169 99.3573 339.96 97.3574C341.28 97.6874 342.6 98.0174 343.96 98.3574C343.71 100.24 343.71 100.24 342.96 102.357C338.709 105.071 334.096 105.716 329.21 104.732C325.769 103.738 322.697 102.742 319.96 100.357C319.835 98.2324 319.835 98.2324 319.96 95.3574C319.501 93.8857 318.996 92.4279 318.46 90.9824C317.298 87.7744 316.968 86.1264 317.085 82.6074C317.266 79.1715 317.266 79.1715 314.71 76.4199C312 73.9574 312 73.9574 307.96 74.3574C306.897 72.5449 306.897 72.5449 305.96 70.3574C306.627 68.3574 307.293 66.3574 307.96 64.3574C308.62 64.3574 309.28 64.3574 309.96 64.3574C310.474 55.9575 307.556 50.5379 302.585 44.0762C300.388 41.7529 297.832 40.6933 294.96 39.3574C294.292 37.2793 294.292 37.2793 293.96 35.3574ZM321.96 87.3574C322.29 89.0074 322.62 90.6574 322.96 92.3574C323.29 92.3574 323.62 92.3574 323.96 92.3574C323.96 90.7074 323.96 89.0574 323.96 87.3574C323.3 87.3574 322.64 87.3574 321.96 87.3574Z" fill="white"/>
<path d="M294.96 87.3574C295.62 87.3574 296.28 87.3574 296.96 87.3574C296.835 90.6699 296.835 90.6699 295.96 94.3574C293.218 96.1659 291.281 97.3574 287.96 97.3574C287.96 98.0174 287.96 98.6774 287.96 99.3574C288.62 99.2543 289.28 99.1512 289.96 99.0449C293.19 99.3814 293.982 99.9491 296.522 101.795C301.005 104.846 305.098 104.991 310.421 105.119C312.96 105.357 312.96 105.357 314.96 107.357C306.441 107.788 300.294 107.797 292.96 103.357C289.492 102.173 288.216 102.28 284.647 103.357C280.198 104.564 277.457 104.146 272.96 103.357C272.465 100.882 272.465 100.882 271.96 98.3574C271.395 98.69 270.831 99.0226 270.249 99.3652C267.645 100.494 266.137 100.523 263.335 100.232C262.559 100.168 261.783 100.104 260.983 100.037C258.96 99.3574 258.96 99.3574 257.687 97.3027C257.327 96.3398 257.327 96.3398 256.96 95.3574C260.425 96.8424 260.425 96.8424 263.96 98.3574C264.29 98.0274 264.62 97.6974 264.96 97.3574C264.135 96.5737 263.31 95.7899 262.46 94.9824C259.96 92.3574 259.96 92.3574 259.96 90.3574C256.648 91.3421 255.225 91.9789 253.21 94.8574C252.797 95.6824 252.385 96.5074 251.96 97.3574C251.63 98.0174 251.3 98.6774 250.96 99.3574C250.3 99.3574 249.64 99.3574 248.96 99.3574C249.063 100.121 249.166 100.884 249.272 101.67C249.118 103 249.118 103 248.96 104.357C246.577 106.176 245.002 107.357 241.96 107.357C241.96 108.017 241.96 108.677 241.96 109.357C239.585 109.045 239.585 109.045 236.96 108.357C236.3 107.367 235.64 106.377 234.96 105.357C242.258 99.9861 242.258 99.9861 245.96 98.3574C245.3 96.7074 244.64 95.0574 243.96 93.3574C242.31 93.3574 240.66 93.3574 238.96 93.3574C239.29 92.3674 239.62 91.3774 239.96 90.3574C241.61 90.6874 243.26 91.0174 244.96 91.3574C245.29 92.6774 245.62 93.9974 245.96 95.3574C249.263 94.2887 251.494 92.9858 254.022 90.6699C256.96 88.3574 256.96 88.3574 259.335 88.5449C259.871 88.813 260.407 89.0812 260.96 89.3574C261.29 90.6774 261.62 91.9974 261.96 93.3574C262.971 93.048 263.981 92.7387 265.022 92.4199C268.633 91.3809 272.229 90.8143 275.96 90.3574C276.62 92.6674 277.28 94.9774 277.96 97.3574C279.19 97.05 279.19 97.05 280.444 96.7363C284.95 95.61 289.455 94.4837 293.96 93.3574C294.29 91.3774 294.62 89.3974 294.96 87.3574ZM241.96 101.357C240.571 103.319 239.234 105.319 237.96 107.357C241.445 106.712 243.988 105.256 246.96 103.357C244.284 101.173 244.284 101.173 241.96 101.357Z" fill="white"/>
<path d="M145.46 91.107C146.62 91.3467 146.62 91.3467 147.804 91.5914C150.196 92.4408 151.324 93.4483 152.96 95.357C154.28 94.037 155.6 92.717 156.96 91.357C157.95 91.687 158.94 92.017 159.96 92.357C159.939 93.4501 159.919 94.5432 159.897 95.6695C159.775 99.3008 159.775 99.3008 160.96 102.357C160.21 102.455 159.459 102.553 158.687 102.654C152.309 103.586 146.788 104.963 140.921 107.65C140.274 107.883 139.627 108.117 138.96 108.357C138.3 108.027 137.64 107.697 136.96 107.357C134.265 107.309 131.591 107.314 128.897 107.357C119.882 107.438 110.95 106.994 101.96 106.357C101.96 106.027 101.96 105.697 101.96 105.357C103.152 105.308 104.345 105.259 105.573 105.209C107.14 105.134 108.706 105.058 110.272 104.982C111.058 104.951 111.844 104.92 112.653 104.888C113.411 104.85 114.168 104.811 114.948 104.771C115.993 104.724 115.993 104.724 117.059 104.676C119.285 104.436 119.285 104.436 121.96 102.357C124.44 101.943 124.44 101.943 127.147 101.732C128.049 101.657 128.95 101.582 129.878 101.505C130.565 101.456 131.252 101.407 131.96 101.357C132.022 100.635 132.084 99.9132 132.147 99.1695C133.22 95.4572 135.058 93.8448 137.96 91.357C141.158 90.2908 142.263 90.4036 145.46 91.107ZM139.96 97.357C139.63 98.677 139.3 99.997 138.96 101.357C140.94 100.697 142.92 100.037 144.96 99.357C144.3 98.697 143.64 98.037 142.96 97.357C141.97 97.357 140.98 97.357 139.96 97.357Z" fill="white"/>
<path d="M210.96 86.3574C212.28 86.3574 213.6 86.3574 214.96 86.3574C216.337 91.4515 215.526 95.538 214.433 100.576C213.792 103.873 213.792 103.873 213.96 109.357C218.91 108.697 223.86 108.037 228.96 107.357C228.156 106.409 227.351 105.46 226.522 104.482C223.304 100.055 223.078 95.7044 222.96 90.3574C224.28 89.6974 225.6 89.0374 226.96 88.3574C230.295 91.3475 232.175 94.2524 233.96 98.3574C233.96 99.0174 233.96 99.6774 233.96 100.357C234.62 100.357 235.28 100.357 235.96 100.357C236.29 98.7074 236.62 97.0574 236.96 95.3574C237.95 95.3574 238.94 95.3574 239.96 95.3574C238.64 97.6674 237.32 99.9774 235.96 102.357C234.64 102.027 233.32 101.697 231.96 101.357C232.207 102.997 232.207 102.997 232.46 104.67C232.96 108.357 232.96 108.357 232.96 111.357C233.476 111.811 233.991 112.265 234.522 112.732C234.997 113.269 235.471 113.805 235.96 114.357C235.705 117.417 234.732 120.104 233.835 123.045C232.609 126.207 232.609 126.207 233.96 128.357C234.29 129.017 234.62 129.677 234.96 130.357C233.97 130.852 233.97 130.852 232.96 131.357C232.96 133.007 232.96 134.657 232.96 136.357C234.94 135.862 234.94 135.862 236.96 135.357C237.29 132.387 237.62 129.417 237.96 126.357C238.29 126.357 238.62 126.357 238.96 126.357C239.32 133.447 239.32 133.447 237.772 137.357C235.96 139.357 235.96 139.357 233.335 139.732C230.96 139.357 230.96 139.357 229.96 138.357C229.465 130.083 230.01 122.399 231.96 114.357C228.99 114.357 226.02 114.357 222.96 114.357C223.29 113.367 223.62 112.377 223.96 111.357C223.345 111.369 222.73 111.381 222.097 111.393C221.288 111.402 220.48 111.411 219.647 111.42C218.447 111.437 218.447 111.437 217.222 111.455C214.96 111.357 214.96 111.357 211.96 110.357C211.905 108.003 211.866 105.65 211.835 103.295C211.812 101.984 211.789 100.673 211.765 99.3223C211.966 95.2392 212.688 92.2074 213.96 88.3574C211.544 89.3249 211.544 89.3249 210.085 92.8574C208.231 96.2537 208.231 96.2537 205.835 97.1699C205.216 97.2318 204.597 97.2937 203.96 97.3574C203.3 98.0174 202.64 98.6774 201.96 99.3574C201.96 98.6974 201.96 98.0374 201.96 97.3574C199.32 97.3574 196.68 97.3574 193.96 97.3574C194.29 96.6974 194.62 96.0374 194.96 95.3574C196.816 95.3884 196.816 95.3884 198.71 95.4199C202.999 95.5867 202.999 95.5867 206.96 94.3574C208.691 90.9026 208.691 90.9026 209.96 87.3574C210.29 87.0274 210.62 86.6974 210.96 86.3574Z" fill="white"/>
<path d="M405.96 71.3574C407.96 73.3574 407.96 73.3574 408.155 75.3027C408.09 77.321 408.025 79.3392 407.96 81.3574C412.587 82.4023 417.248 82.875 421.96 83.3574C422.29 84.3474 422.62 85.3374 422.96 86.3574C419.95 87.2917 419.093 87.4019 415.96 86.3574C413.322 86.7514 413.322 86.7514 410.96 87.3574C410.96 88.0174 410.96 88.6774 410.96 89.3574C410.3 89.3574 409.64 89.3574 408.96 89.3574C408.972 90.506 408.983 91.6545 408.995 92.8379C409.184 118.892 409.184 118.892 406.417 122.205C405.936 122.585 405.455 122.966 404.96 123.357C402.698 121.679 401.204 120.237 400.437 117.475C399.628 111.38 400.222 105.434 400.96 99.3574C400.3 99.3574 399.64 99.3574 398.96 99.3574C398.63 98.3674 398.3 97.3774 397.96 96.3574C398.608 96.0352 399.257 95.7129 399.925 95.3809C402.52 92.8005 402.43 90.8534 402.521 87.2949C402.521 86.5318 402.522 85.7687 402.522 84.9824C402.555 79.582 402.578 75.8607 405.96 71.3574Z" fill="white"/>
<path d="M191.96 114.358C191.63 115.348 191.3 116.338 190.96 117.358C190.3 117.358 189.64 117.358 188.96 117.358C188.3 119.008 187.64 120.658 186.96 122.358C185.423 122.34 185.423 122.34 183.854 122.323C182.494 122.313 181.133 122.304 179.772 122.295C179.099 122.287 178.425 122.279 177.731 122.27C174.839 122.256 172.133 122.323 169.292 122.893C166.62 123.426 164.531 123.212 161.835 122.858C157.012 122.348 152.618 122.566 147.812 123.092C142.896 123.55 137.881 123.824 132.96 123.358C132.3 122.698 131.64 122.038 130.96 121.358C137.376 118.546 142.929 117.811 149.897 117.608C151.333 117.544 151.333 117.544 152.798 117.479C157.902 117.283 157.902 117.283 159.96 117.358C160.29 117.688 160.62 118.018 160.96 118.358C162.494 118.245 164.023 118.056 165.546 117.834C166.477 117.7 167.407 117.566 168.366 117.428C169.346 117.281 170.326 117.134 171.335 116.983C172.307 116.844 173.279 116.704 174.28 116.561C189.628 114.314 189.628 114.314 191.96 114.358Z" fill="white"/>
<path d="M396.46 96.6077C398.96 97.3577 398.96 97.3577 401.96 99.3577C401.899 99.9661 401.839 100.575 401.776 101.201C401.651 102.516 401.651 102.516 401.522 103.858C401.426 104.848 401.329 105.838 401.229 106.858C401.031 109.436 400.905 111.964 400.847 114.545C400.823 115.259 400.8 115.972 400.776 116.707C400.733 118.125 400.708 119.543 400.704 120.961C400.632 122.951 400.632 122.951 399.96 126.358C395.438 130.404 389.878 129.91 384.14 130.053C383.085 130.091 382.031 130.129 380.944 130.167C377.575 130.286 374.205 130.385 370.835 130.483C367.486 130.591 364.138 130.704 360.79 130.819C358.71 130.89 356.629 130.956 354.549 131.016C347.989 131.222 341.489 131.692 334.96 132.358C335.29 133.678 335.62 134.998 335.96 136.358C337.032 136.069 338.105 135.78 339.21 135.483C347.016 133.542 354.895 131.991 362.96 132.358C362.96 133.018 362.96 133.678 362.96 134.358C362.236 134.407 361.511 134.456 360.765 134.506C354.758 134.93 354.758 134.93 348.96 136.42C344.382 137.851 339.723 137.707 334.96 137.358C333.96 136.358 333.96 136.358 333.897 133.795C333.918 132.991 333.939 132.186 333.96 131.358C339.822 128.891 345.7 128.817 351.964 128.506C353.698 128.41 353.698 128.41 355.467 128.313C359.152 128.112 362.837 127.922 366.522 127.733C369.006 127.598 371.49 127.463 373.974 127.326C378.523 127.081 383.072 126.836 387.622 126.601C388.991 126.53 388.991 126.53 390.387 126.458C392.91 126.36 395.435 126.358 397.96 126.358C397.96 117.778 397.96 109.198 397.96 100.358C395.65 99.6977 393.34 99.0377 390.96 98.3577C393.96 96.3577 393.96 96.3577 396.46 96.6077Z" fill="white"/>
<path d="M262.96 46.3574C265.698 49.095 266.467 52.149 267.765 55.752C270.513 61.7416 275.098 65.2791 280.21 69.1699C280.86 69.672 281.509 70.1741 282.179 70.6914C283.768 71.9187 285.364 73.1388 286.96 74.3574C283.96 75.3574 283.96 75.3574 281.964 74.6426C279.782 73.2434 278.49 71.8296 276.897 69.7949C274.835 67.163 274.247 66.4531 270.96 65.3574C272.063 66.6294 273.167 67.9 274.272 69.1699C274.887 69.8776 275.502 70.5853 276.136 71.3145C279.224 74.7731 281.95 77.0035 285.96 79.3574C288.976 81.3341 291.969 83.3438 294.96 85.3574C294.465 86.3474 294.465 86.3474 293.96 87.3574C285.819 82.1581 278.087 76.9848 271.046 70.3184C269.266 68.645 267.459 67.153 265.522 65.6699C262.668 63.0939 261.289 60.9543 259.96 57.3574C260.29 56.3674 260.62 55.3774 260.96 54.3574C264.96 61.1074 264.96 61.1074 264.96 63.3574C265.95 63.0274 266.94 62.6974 267.96 62.3574C267.651 61.5943 267.341 60.8312 267.022 60.0449C266.281 58.1695 265.598 56.2706 264.96 54.3574C264.3 54.0274 263.64 53.6974 262.96 53.3574C262.96 51.0474 262.96 48.7374 262.96 46.3574Z" fill="white"/>
<path d="M28.96 16.3574C42.6559 17.8108 56.3085 19.5355 69.96 21.3574C69.96 21.6874 69.96 22.0174 69.96 22.3574C62.04 22.8524 62.04 22.8524 53.96 23.3574C53.96 23.0274 53.96 22.6974 53.96 22.3574C52.31 22.3574 50.66 22.3574 48.96 22.3574C50.94 23.0174 52.92 23.6774 54.96 24.3574C54.63 25.0174 54.3 25.6774 53.96 26.3574C39.605 23.8824 39.605 23.8824 24.96 21.3574C25.29 20.6974 25.62 20.0374 25.96 19.3574C28.27 19.3574 30.58 19.3574 32.96 19.3574C31.64 18.3674 30.32 17.3774 28.96 16.3574Z" fill="white"/>
<path d="M308.96 92.3574C310.851 92.5723 310.851 92.5723 312.96 93.3574C314.007 95.4238 314.007 95.4238 314.71 97.9199C314.952 98.7462 315.195 99.5725 315.444 100.424C315.614 101.062 315.785 101.7 315.96 102.357C316.62 102.357 317.28 102.357 317.96 102.357C317.63 103.347 317.3 104.337 316.96 105.357C312.057 107.373 306.007 106.397 300.96 105.357C298.602 103.884 297.606 102.65 295.96 100.357C296.95 100.357 297.94 100.357 298.96 100.357C298.96 99.6974 298.96 99.0374 298.96 98.3574C302.26 97.6974 305.56 97.0374 308.96 96.3574C308.96 95.0374 308.96 93.7174 308.96 92.3574Z" fill="white"/>
<path d="M269.96 31.3577C283.722 30.8127 294.84 31.0767 305.944 40.2835C309.383 43.8218 313.96 49.202 313.96 54.3577C312.97 54.0277 311.98 53.6977 310.96 53.3577C309.877 51.0617 308.882 48.723 307.96 46.3577C306.733 43.2762 306.733 43.2762 304.21 41.2952C303.467 40.9859 302.725 40.6765 301.96 40.3577C299.96 39.3577 297.96 38.3577 295.96 37.3577C295.96 38.0177 295.96 38.6777 295.96 39.3577C296.62 40.0177 297.28 40.6777 297.96 41.3577C295.2 40.8559 292.626 40.2465 289.96 39.3577C284.467 37.7183 278.65 37.6829 272.96 37.3577C273.29 36.6977 273.62 36.0377 273.96 35.3577C276.901 34.9437 276.901 34.9437 280.522 34.7327C281.72 34.658 282.918 34.5832 284.151 34.5062C285.078 34.4572 286.005 34.4082 286.96 34.3577C283.19 33.5253 279.496 33.0912 275.647 32.7952C274.045 32.6695 274.045 32.6695 272.409 32.5413C271.601 32.4807 270.793 32.4201 269.96 32.3577C269.96 32.0277 269.96 31.6977 269.96 31.3577Z" fill="white"/>
<path d="M125.96 49.3572C125.96 50.3472 125.96 51.3372 125.96 52.3572C124.31 52.6872 122.66 53.0172 120.96 53.3572C120.63 54.3472 120.3 55.3372 119.96 56.3572C117.462 58.0561 115.177 58.5399 112.21 59.2322C108.388 60.1252 105.169 61.6017 101.722 63.4549C99.96 64.3572 99.96 64.3572 96.96 65.3572C96.3 64.6972 95.64 64.0372 94.96 63.3572C98.6986 58.8498 103.633 56.6712 108.772 54.1072C109.65 53.6483 110.527 53.1894 111.431 52.7166C116.555 50.1412 120.216 48.7617 125.96 49.3572Z" fill="white"/>
<path d="M255.96 19.3574C256.29 19.3574 256.62 19.3574 256.96 19.3574C257.07 20.0329 257.179 20.7084 257.292 21.4043C257.451 22.2963 257.609 23.1884 257.772 24.1074C257.923 24.9891 258.074 25.8709 258.229 26.7793C259.014 29.5485 260.106 31.1834 261.96 33.3574C262.76 33.1963 263.561 33.0352 264.386 32.8691C268.669 32.256 272.828 32.1734 277.147 32.1699C277.954 32.1577 278.76 32.1454 279.591 32.1328C280.366 32.1309 281.142 32.1289 281.94 32.127C282.991 32.1208 282.991 32.1208 284.062 32.1145C285.96 32.3574 285.96 32.3574 288.96 34.3574C286.171 35.7521 283.628 35.6635 280.522 35.8574C277.065 36.0737 274.249 36.2609 270.96 37.3574C273.61 40.9884 275.978 43.2559 279.96 45.3574C278.147 46.0449 278.147 46.0449 275.96 46.3574C274.46 45.0449 274.46 45.0449 272.96 43.3574C270.86 42.1817 270.86 42.1817 268.96 41.3574C268.96 39.3774 268.96 37.3974 268.96 35.3574C267.908 35.6255 266.856 35.8937 265.772 36.1699C261.96 36.3574 261.96 36.3574 259.147 34.1699C255.359 29.2986 254.604 26.6541 254.96 20.3574C255.29 20.0274 255.62 19.6974 255.96 19.3574Z" fill="white"/>
<path d="M326.96 85.3574C329.769 88.1661 329.687 90.4688 329.96 94.3574C328.97 95.8424 328.97 95.8424 327.96 97.3574C328.272 100.004 328.272 100.004 328.96 102.357C332.302 102.432 334.764 102.423 337.96 101.357C339.169 99.3573 339.169 99.3573 339.96 97.3574C341.28 97.6874 342.6 98.0174 343.96 98.3574C343.71 100.24 343.71 100.24 342.96 102.357C338.709 105.071 334.096 105.716 329.21 104.732C325.769 103.738 322.697 102.742 319.96 100.357C319.647 97.8574 319.647 97.8574 319.96 95.3574C319.96 94.3674 319.96 93.3774 319.96 92.3574C320.95 92.6874 321.94 93.0174 322.96 93.3574C323.95 93.3574 324.94 93.3574 325.96 93.3574C326.557 90.5948 326.96 88.1971 326.96 85.3574Z" fill="white"/>
<path d="M47.96 21.3574C50.2929 21.315 52.627 21.3165 54.96 21.3574C55.29 21.6874 55.62 22.0174 55.96 22.3574C58.6565 22.4306 61.3269 22.4499 64.0225 22.4199C65.1604 22.4132 65.1604 22.4132 66.3213 22.4063C68.2009 22.3944 70.0804 22.3765 71.96 22.3574C71.96 23.3474 71.96 24.3374 71.96 25.3574C72.5787 25.1718 73.1975 24.9862 73.835 24.7949C75.96 24.3574 75.96 24.3574 77.96 25.3574C79.6262 25.3971 81.2939 25.4013 82.96 25.3574C82.3 25.6874 81.64 26.0174 80.96 26.3574C80.96 27.3474 80.96 28.3374 80.96 29.3574C72.2003 28.8126 63.6143 27.8163 54.96 26.3574C54.96 25.6974 54.96 25.0374 54.96 24.3574C53.9906 24.2337 53.0212 24.1099 52.0225 23.9824C51.0118 23.7762 50.0012 23.5699 48.96 23.3574C48.63 22.6974 48.3 22.0374 47.96 21.3574Z" fill="white"/>
<path d="M256.96 95.3574C258.569 96.1309 258.569 96.1309 260.21 96.9199C263.345 98.268 264.683 98.3815 267.96 97.3574C270.301 97.6306 272.637 97.9555 274.96 98.3574C274.96 99.3474 274.96 100.337 274.96 101.357C278.824 101.515 281.854 101.389 285.585 100.295C289.139 99.3077 290.534 99.1583 293.96 100.357C294.971 101.017 295.981 101.677 297.022 102.357C301.249 104.957 305.524 104.925 310.386 105.084C312.96 105.357 312.96 105.357 314.96 107.357C306.441 107.788 300.294 107.797 292.96 103.357C289.492 102.173 288.216 102.28 284.647 103.357C280.198 104.564 277.457 104.146 272.96 103.357C272.63 101.707 272.3 100.057 271.96 98.3574C271.395 98.69 270.831 99.0226 270.249 99.3652C267.645 100.494 266.137 100.523 263.335 100.232C262.559 100.168 261.783 100.104 260.983 100.037C258.96 99.3574 258.96 99.3574 257.687 97.3027C257.327 96.3398 257.327 96.3398 256.96 95.3574Z" fill="white"/>
<path d="M142.96 94.3571C141.97 94.6871 140.98 95.0171 139.96 95.3571C139.96 96.0171 139.96 96.6771 139.96 97.3571C139.3 97.6871 138.64 98.0171 137.96 98.3571C137.96 100.007 137.96 101.657 137.96 103.357C136.64 103.357 135.32 103.357 133.96 103.357C133.96 104.017 133.96 104.677 133.96 105.357C127.295 107.891 121.059 107.382 114.022 106.982C112.862 106.925 111.701 106.869 110.505 106.81C107.656 106.67 104.808 106.518 101.96 106.357C101.96 106.027 101.96 105.697 101.96 105.357C103.152 105.308 104.345 105.259 105.573 105.209C107.14 105.134 108.706 105.058 110.272 104.982C111.058 104.951 111.844 104.92 112.653 104.888C113.411 104.85 114.168 104.811 114.948 104.771C115.993 104.724 115.993 104.724 117.059 104.676C119.285 104.436 119.285 104.436 121.96 102.357C124.659 101.943 124.659 101.943 127.647 101.732C128.641 101.657 129.635 101.583 130.659 101.506C131.418 101.457 132.178 101.408 132.96 101.357C133.084 100.718 133.207 100.078 133.335 99.4196C133.644 98.3986 133.644 98.3986 133.96 97.3571C134.62 97.0271 135.28 96.6971 135.96 96.3571C135.96 95.6971 135.96 95.0371 135.96 94.3571C138.627 93.0238 140.127 93.6861 142.96 94.3571Z" fill="white"/>
<path d="M404.96 69.3574C406.28 70.0174 407.6 70.6774 408.96 71.3574C408.96 74.6574 408.96 77.9574 408.96 81.3574C409.95 81.0274 410.94 80.6974 411.96 80.3574C418.048 79.772 421.007 81.123 425.96 84.3574C424.97 85.0174 423.98 85.6774 422.96 86.3574C422.63 85.3674 422.3 84.3774 421.96 83.3574C417.67 83.3574 413.38 83.3574 408.96 83.3574C406.964 79.3663 406.765 77.6576 406.96 73.3574C406.3 73.3574 405.64 73.3574 404.96 73.3574C404.96 74.3474 404.96 75.3374 404.96 76.3574C404.3 76.3574 403.64 76.3574 402.96 76.3574C402.995 77.5498 403.03 78.7422 403.065 79.9707C403.094 81.5371 403.121 83.1035 403.147 84.6699C403.185 85.8484 403.185 85.8484 403.224 87.0508C403.233 87.8081 403.243 88.5654 403.253 89.3457C403.269 90.0422 403.284 90.7387 403.301 91.4563C402.862 93.9023 401.826 94.7844 399.96 96.3574C398.97 96.0274 397.98 95.6974 396.96 95.3574C396.96 94.6974 396.96 94.0374 396.96 93.3574C397.95 93.3574 398.94 93.3574 399.96 93.3574C400.009 92.535 400.058 91.7126 400.108 90.8652C401.101 76.0434 401.101 76.0434 402.96 70.3574C403.62 70.0274 404.28 69.6974 404.96 69.3574Z" fill="white"/>
<path d="M514.96 123.357C517.585 123.17 517.585 123.17 519.96 123.357C520.62 125.007 521.28 126.657 521.96 128.357C519.597 130.883 518.295 132.246 514.96 133.357C512.732 133.427 510.502 133.442 508.272 133.42C506.503 133.406 506.503 133.406 504.698 133.393C503.795 133.381 502.891 133.369 501.96 133.357C504.806 130.511 507.764 130.902 511.585 130.732C512.291 130.694 512.998 130.655 513.726 130.615C515.47 130.521 517.215 130.438 518.96 130.357C518.96 129.037 518.96 127.717 518.96 126.357C517.97 126.027 516.98 125.697 515.96 125.357C515.63 126.347 515.3 127.337 514.96 128.357C510.843 130.71 506.85 130.547 502.253 130.334C501.165 130.296 501.165 130.296 500.055 130.258C497.752 130.176 495.45 130.08 493.147 129.982C491.58 129.924 490.013 129.867 488.446 129.811C484.617 129.671 480.788 129.518 476.96 129.357C476.96 129.027 476.96 128.697 476.96 128.357C478.04 128.313 479.12 128.268 480.233 128.221C484.233 128.051 488.232 127.862 492.231 127.668C493.963 127.586 495.696 127.51 497.428 127.438C499.916 127.335 502.403 127.213 504.89 127.088C505.667 127.06 506.444 127.031 507.245 127.002C509.662 126.902 509.662 126.902 512.96 126.357C513.62 125.367 514.28 124.377 514.96 123.357Z" fill="white"/>
<path d="M224.96 88.3574C227.842 88.9979 229.527 89.7047 231.183 92.2012C233.96 97.6961 233.96 97.6961 233.96 100.357C234.62 100.357 235.28 100.357 235.96 100.357C236.29 98.7074 236.62 97.0574 236.96 95.3574C237.95 95.3574 238.94 95.3574 239.96 95.3574C238.64 97.6674 237.32 99.9774 235.96 102.357C234.64 102.027 233.32 101.697 231.96 101.357C231.63 102.347 231.3 103.337 230.96 104.357C228.522 102.795 228.522 102.795 225.96 100.357C225.147 96.6074 225.147 96.6074 224.96 93.3574C224.3 93.3574 223.64 93.3574 222.96 93.3574C223.835 89.4824 223.835 89.4824 224.96 88.3574Z" fill="white"/>
<path d="M562.96 116.357C566.299 116.695 568.228 118.126 570.71 120.295C571.324 120.82 571.937 121.344 572.569 121.885C573.96 123.357 573.96 123.357 573.96 125.357C572.97 125.687 571.98 126.017 570.96 126.357C570.3 126.027 569.64 125.697 568.96 125.357C569.29 127.007 569.62 128.657 569.96 130.357C568.64 130.687 567.32 131.017 565.96 131.357C561.117 124.386 561.117 124.386 560.522 120.482C560.96 118.357 560.96 118.357 562.96 116.357Z" fill="white"/>
<path d="M400.96 131.357C401.96 134.357 401.96 134.357 401.96 137.357C402.62 137.687 403.28 138.017 403.96 138.357C403.63 138.687 403.3 139.017 402.96 139.357C403.146 140.45 403.331 141.544 403.522 142.67C403.951 146.284 403.942 147.442 401.96 150.357C401.63 150.357 401.3 150.357 400.96 150.357C400.3 145.077 399.64 139.797 398.96 134.357C389.39 134.027 379.82 133.697 369.96 133.357C373.497 131.589 374.784 131.089 378.479 130.908C379.337 130.865 380.195 130.822 381.079 130.777C381.968 130.742 382.857 130.706 383.772 130.67C384.65 130.623 385.527 130.576 386.431 130.527C391.435 130.299 396.029 130.463 400.96 131.357Z" fill="white"/>
<path d="M478.96 65.3574C481.273 65.4199 481.273 65.4199 483.96 66.3574C486.335 69.1074 486.335 69.1074 487.96 72.3574C487.71 75.2324 487.71 75.2324 486.96 77.3574C480.577 77.8392 480.577 77.8392 477.96 75.7949C476.553 72.3662 477.155 69.9145 477.96 66.3574C478.29 66.0274 478.62 65.6974 478.96 65.3574Z" fill="white"/>
<path d="M2.95996 8.35742C7.94433 9.85273 12.3752 11.9469 16.96 14.3574C18.3831 15.038 18.3831 15.038 19.835 15.7324C22.6986 17.9223 23.1669 19.897 23.96 23.3574C23.96 24.3474 23.96 25.3374 23.96 26.3574C22.97 26.0274 21.98 25.6974 20.96 25.3574C20.96 24.6974 20.96 24.0374 20.96 23.3574C20.3 23.3574 19.64 23.3574 18.96 23.3574C17.27 21.7144 15.6078 20.0427 13.96 18.3574C9.78627 14.5467 6.17086 12.3376 0.959961 10.3574C1.61996 9.69742 2.27996 9.03742 2.95996 8.35742Z" fill="white"/>
<path d="M145.522 91.107C146.308 91.2669 147.093 91.4267 147.901 91.5914C149.96 92.357 149.96 92.357 151.96 95.357C150.97 95.687 149.98 96.017 148.96 96.357C148.96 97.017 148.96 97.677 148.96 98.357C148.3 98.357 147.64 98.357 146.96 98.357C147.29 99.347 147.62 100.337 147.96 101.357C146.31 101.357 144.66 101.357 142.96 101.357C142.96 100.367 142.96 99.377 142.96 98.357C141.97 98.027 140.98 97.697 139.96 97.357C139.96 96.697 139.96 96.037 139.96 95.357C140.62 95.027 141.28 94.697 141.96 94.357C139.98 94.357 138 94.357 135.96 94.357C136.29 95.347 136.62 96.337 136.96 97.357C135.97 97.687 134.98 98.017 133.96 98.357C133.3 99.347 132.64 100.337 131.96 101.357C132.374 96.523 134.338 94.4617 137.96 91.357C141.167 90.2882 142.31 90.4085 145.522 91.107Z" fill="white"/>
<path d="M0.96 6.35765C5.14512 6.0255 7.10704 6.79493 10.5225 9.17015C16.0469 12.6948 21.5782 14.1076 27.96 15.3576C27.63 16.0176 27.3 16.6776 26.96 17.3576C25.97 17.6876 24.98 18.0176 23.96 18.3576C23.96 17.6976 23.96 17.0376 23.96 16.3576C23.3425 16.2713 22.7251 16.1849 22.0889 16.0959C16.2269 15.1234 11.8703 13.5049 6.87016 10.2834C4.82135 9.01591 4.82135 9.01591 1.96 10.3576C3.38313 10.8526 3.38313 10.8526 4.835 11.3576C10.1826 13.6306 14.7653 17.3824 18.96 21.3576C18.96 22.0176 18.96 22.6776 18.96 23.3576C16.0324 21.9979 13.6159 20.4174 11.085 18.4201C8.55145 16.4643 6.45145 15.1172 3.5225 13.7326C0.96 12.3576 0.96 12.3576 0.0225 10.2951C-0.04 8.35765 -0.04 8.35765 0.96 6.35765Z" fill="white"/>
<path d="M334.96 23.3574C337.96 24.3574 337.96 24.3574 339.71 26.7324C341.467 31.828 340.727 36.0992 339.96 41.3574C339.861 42.1051 339.761 42.8527 339.659 43.623C339.444 45.2037 339.205 46.7811 338.96 48.3574C337.31 48.6874 335.66 49.0174 333.96 49.3574C332.579 46.5963 333.389 45.4378 334.335 42.5449C336.744 35.1531 336.744 35.1531 336.022 27.5449C335.828 26.7547 335.633 25.9645 335.433 25.1504C335.277 24.5587 335.121 23.967 334.96 23.3574Z" fill="white"/>
<path d="M98.2725 27.0453C99.3205 27.2451 100.368 27.4449 101.448 27.6508C103.187 28.0007 103.187 28.0007 104.96 28.3578C106.286 28.6055 107.613 28.8515 108.94 29.0961C120.257 31.2322 120.257 31.2322 123.96 33.3578C124.62 33.6878 125.28 34.0178 125.96 34.3578C124.304 34.74 122.635 35.0717 120.96 35.3578C120.63 35.0278 120.3 34.6978 119.96 34.3578C117.629 34.006 115.296 33.6745 112.96 33.3578C112.259 33.1722 111.557 32.9865 110.835 32.7953C108.885 32.2572 108.885 32.2572 106.522 32.4203C103.96 32.3578 103.96 32.3578 101.585 31.2953C98.1052 30.0525 95.5347 30.6569 91.96 31.3578C91.96 30.6978 91.96 30.0378 91.96 29.3578C90.97 29.0278 89.98 28.6978 88.96 28.3578C92.3744 26.2228 94.3668 26.2836 98.2725 27.0453Z" fill="white"/>
<path d="M360.96 89.3574C361.826 90.5949 361.826 90.5949 362.71 91.8574C363.824 93.0949 363.824 93.0949 364.96 94.3574C368.946 94.8139 368.946 94.8139 371.022 92.4199C371.662 91.7393 372.301 91.0587 372.96 90.3574C373.95 90.0274 374.94 89.6974 375.96 89.3574C379.96 95.1074 379.96 95.1074 379.96 97.3574C380.62 97.6874 381.28 98.0174 381.96 98.3574C380.97 98.8524 380.97 98.8524 379.96 99.3574C379.3 99.0274 378.64 98.6974 377.96 98.3574C377.96 97.6974 377.96 97.0374 377.96 96.3574C377.3 96.3574 376.64 96.3574 375.96 96.3574C375.3 95.6974 374.64 95.0374 373.96 94.3574C373.3 95.0174 372.64 95.6774 371.96 96.3574C368.725 97.4955 366.031 98.442 362.585 98.1699C360.96 97.3574 360.96 97.3574 359.96 94.3574C358.97 94.3574 357.98 94.3574 356.96 94.3574C356.63 93.6974 356.3 93.0374 355.96 92.3574C357.61 91.3674 359.26 90.3774 360.96 89.3574Z" fill="white"/>
<path d="M486.96 101.357C491.91 101.357 496.86 101.357 501.96 101.357C502.29 102.017 502.62 102.677 502.96 103.357C500.96 106.357 500.96 106.357 498.491 106.869C497.491 106.927 496.491 106.985 495.46 107.045C493.859 107.142 493.859 107.142 492.226 107.24C487.8 107.399 483.387 107.446 478.96 107.357C481.966 104.351 484.784 104.762 488.96 104.357C488.3 103.367 487.64 102.377 486.96 101.357Z" fill="white"/>
<path d="M63.96 79.3574C65.96 80.3574 65.96 80.3574 66.8115 82.1504C69.2165 89.5962 69.2625 96.5815 68.96 104.357C69.95 104.687 70.94 105.017 71.96 105.357C71.3 106.347 70.64 107.337 69.96 108.357C69.6815 110.575 69.6815 110.575 69.7725 112.92C69.7789 113.705 69.7854 114.49 69.792 115.299C69.8363 117.421 69.8363 117.421 70.96 119.357C71.95 120.017 72.94 120.677 73.96 121.357C72.31 121.027 70.66 120.697 68.96 120.357C67.1098 114.009 66.6225 108.137 66.46 101.545C66.2047 94.0018 65.7737 86.7179 63.96 79.3574Z" fill="white"/>
<path d="M258.96 103.357C259.29 104.347 259.62 105.337 259.96 106.357C253.425 109.681 247.206 111.328 239.96 112.357C239.96 111.697 239.96 111.037 239.96 110.357C240.95 110.027 241.94 109.697 242.96 109.357C243.29 108.367 243.62 107.377 243.96 106.357C248.915 103.013 253.216 103.012 258.96 103.357Z" fill="white"/>
<path d="M71.96 41.3574C73.96 41.6699 73.96 41.6699 75.96 42.3574C76.29 43.0174 76.62 43.6774 76.96 44.3574C75.31 44.3574 73.66 44.3574 71.96 44.3574C71.8994 45.4776 71.8388 46.5978 71.7764 47.752C71.6919 49.2246 71.6073 50.6973 71.5225 52.1699C71.4635 53.2769 71.4635 53.2769 71.4033 54.4062C71.2162 57.5881 70.9728 60.319 69.96 63.3574C69.9161 65.0235 69.9203 66.6912 69.96 68.3574C70.0341 71.4713 69.9577 73.3642 68.96 76.3574C68.3 76.3574 67.64 76.3574 66.96 76.3574C64.085 69.7324 64.085 69.7324 62.96 66.3574C63.62 66.0274 64.28 65.6974 64.96 65.3574C65.62 66.6774 66.28 67.9974 66.96 69.3574C67.2992 67.004 67.6315 64.6499 67.96 62.2949C68.103 61.3098 68.103 61.3098 68.249 60.3047C68.8496 55.9506 68.9653 51.7451 68.96 47.3574C70.4116 42.9058 70.4116 42.9058 71.96 41.3574Z" fill="white"/>
<path d="M313.062 6.24023C318.982 6.80843 324.063 7.82245 328.96 11.3574C331.289 14.3411 331.96 15.5733 331.96 19.3574C331.415 18.9591 330.869 18.5608 330.308 18.1504C325.008 14.4271 320.146 12.1642 313.96 10.3574C312.286 9.70846 310.615 9.05162 308.96 8.35742C310.96 6.35742 310.96 6.35742 313.062 6.24023Z" fill="white"/>
<path d="M258.96 8.35742C259.62 8.35742 260.28 8.35742 260.96 8.35742C259.96 11.3574 259.96 11.3574 256.96 13.3574C255.97 14.8424 255.97 14.8424 254.96 16.3574C254.3 17.0174 253.64 17.6774 252.96 18.3574C252.294 23.3399 252.699 27.8364 254.96 32.3574C255.29 33.3474 255.62 34.3374 255.96 35.3574C257.96 36.5662 257.96 36.5662 259.96 37.3574C258.97 37.6874 257.98 38.0174 256.96 38.3574C251.882 33.6799 249.941 30.379 249.397 23.5449C249.469 18.1992 251.554 15.6462 255.233 11.9512C256.088 11.1623 256.088 11.1623 256.96 10.3574C257.62 9.69742 258.28 9.03742 258.96 8.35742Z" fill="white"/>
<path d="M302.96 86.3574C307.395 87.7512 309.834 89.9632 312.96 93.3574C311.97 93.6874 310.98 94.0174 309.96 94.3574C309.96 95.3474 309.96 96.3374 309.96 97.3574C306.524 95.8303 303.841 93.7582 300.96 91.3574C300.63 93.3374 300.3 95.3174 299.96 97.3574C299.3 97.0274 298.64 96.6974 297.96 96.3574C299.116 92.4453 300.315 89.4829 302.96 86.3574Z" fill="white"/>
<path d="M309.96 55.3574C310.62 55.6874 311.28 56.0174 311.96 56.3574C312.374 59.1934 312.374 59.1934 312.585 62.7324C312.66 63.8952 312.734 65.0579 312.812 66.2559C312.909 68.288 312.96 70.323 312.96 72.3574C313.62 72.6874 314.28 73.0174 314.96 73.3574C314.63 74.0174 314.3 74.6774 313.96 75.3574C311.085 75.1074 311.085 75.1074 307.96 74.3574C306.522 72.4824 306.522 72.4824 305.96 70.3574C306.627 68.3574 307.293 66.3574 307.96 64.3574C308.62 64.3574 309.28 64.3574 309.96 64.3574C309.96 61.3874 309.96 58.4174 309.96 55.3574Z" fill="white"/>
<path d="M311.96 55.3574C312.62 55.3574 313.28 55.3574 313.96 55.3574C313.998 56.2727 314.035 57.1879 314.073 58.1309C314.139 59.3194 314.205 60.5079 314.273 61.7324C314.331 62.9158 314.389 64.0991 314.448 65.3184C314.617 66.3212 314.786 67.3241 314.96 68.3574C315.95 69.0174 316.94 69.6774 317.96 70.3574C321.425 63.9224 321.425 63.9224 324.96 57.3574C326.062 61.7651 325.547 63.2497 323.96 67.3574C323.3 67.3574 322.64 67.3574 321.96 67.3574C321.63 69.0074 321.3 70.6574 320.96 72.3574C319.273 73.1074 319.273 73.1074 316.96 73.3574C314.335 71.8262 314.335 71.8262 311.96 69.3574C311.472 65.9043 311.472 65.9043 311.648 62.1074C311.693 60.8441 311.738 59.5809 311.784 58.2793C311.842 57.3151 311.9 56.3509 311.96 55.3574Z" fill="white"/>
<path d="M255.96 14.3574C256.95 14.6874 257.94 15.0174 258.96 15.3574C258.465 16.038 257.97 16.7187 257.46 17.4199C255.092 22.0569 255.455 25.7838 257.022 30.6699C257.332 31.5568 257.641 32.4437 257.96 33.3574C257.63 34.0174 257.3 34.6774 256.96 35.3574C255.97 35.0274 254.98 34.6974 253.96 34.3574C253.816 33.388 253.671 32.4187 253.522 31.4199C253.284 28.4926 253.284 28.4926 251.96 27.3574C251.584 24.3233 251.552 21.388 251.96 18.3574C253.96 15.7949 253.96 15.7949 255.96 14.3574Z" fill="white"/>
<path d="M376.147 87.3574C377.96 88.3574 377.96 88.3574 378.772 90.3574C379.164 91.0174 379.556 91.6774 379.96 92.3574C383.522 93.1761 383.522 93.1761 386.96 93.3574C385.97 93.8524 385.97 93.8524 384.96 94.3574C384.96 95.0174 384.96 95.6774 384.96 96.3574C382.71 96.7324 382.71 96.7324 379.96 96.3574C377.647 93.3574 377.647 93.3574 375.96 90.3574C372.968 91.1322 372.968 91.1322 369.96 92.3574C369.63 93.3474 369.3 94.3374 368.96 95.3574C364.085 94.4824 364.085 94.4824 362.96 93.3574C362.919 91.6913 362.917 90.0235 362.96 88.3574C363.62 89.6774 364.28 90.9974 364.96 92.3574C367.941 91.9158 369.101 91.2372 371.46 89.2324C373.96 87.3574 373.96 87.3574 376.147 87.3574Z" fill="white"/>
<path d="M403.96 106.357C404.62 107.017 405.28 107.677 405.96 108.357C406.62 107.697 407.28 107.037 407.96 106.357C408.041 108.628 408.099 110.899 408.147 113.17C408.182 114.434 408.217 115.699 408.253 117.002C407.96 120.357 407.96 120.357 406.448 122.307C405.957 122.653 405.466 123 404.96 123.357C404.3 122.697 403.64 122.037 402.96 121.357C402.977 118.765 403.098 116.305 403.335 113.732C403.392 113.026 403.448 112.32 403.507 111.592C403.648 109.846 403.803 108.102 403.96 106.357Z" fill="white"/>
<path d="M544.96 115.357C547.335 115.17 547.335 115.17 549.96 115.357C552.389 119.002 552.122 121.07 551.96 125.357C547.21 124.482 547.21 124.482 544.96 123.357C543.685 117.908 543.685 117.908 544.96 115.357Z" fill="white"/>
<path d="M421.96 127.357C428.23 127.357 434.5 127.357 440.96 127.357C440.96 128.017 440.96 128.677 440.96 129.357C442.28 129.687 443.6 130.017 444.96 130.357C437.04 130.357 429.12 130.357 420.96 130.357C421.29 129.367 421.62 128.377 421.96 127.357Z" fill="white"/>
<path d="M178.78 117.162C179.871 117.185 180.961 117.209 182.085 117.232C183.181 117.25 184.276 117.269 185.405 117.287C186.248 117.31 187.091 117.334 187.96 117.357C187.63 119.007 187.3 120.657 186.96 122.357C185.357 122.439 183.752 122.497 182.147 122.545C181.254 122.58 180.361 122.615 179.44 122.65C176.543 122.308 175.734 121.603 173.96 119.357C175.96 117.357 175.96 117.357 178.78 117.162Z" fill="white"/>
<path d="M437.96 97.3574C438.62 97.6874 439.28 98.0174 439.96 98.3574C439.63 99.3474 439.3 100.337 438.96 101.357C436.921 102.236 436.921 102.236 434.335 102.92C432.983 103.285 432.983 103.285 431.604 103.658C430.732 103.889 429.859 104.12 428.96 104.357C427.647 104.772 426.334 105.189 425.022 105.607C421.96 106.357 421.96 106.357 418.96 105.357C419.29 104.037 419.62 102.717 419.96 101.357C421.816 101.667 421.816 101.667 423.71 101.982C427.191 102.41 428.976 102.347 431.96 100.357C433.927 99.295 435.926 98.286 437.96 97.3574Z" fill="white"/>
<path d="M131.96 102.357C132.62 102.687 133.28 103.017 133.96 103.357C133.96 104.017 133.96 104.677 133.96 105.357C127.295 107.892 121.059 107.382 114.022 106.982C112.862 106.926 111.701 106.869 110.505 106.811C107.656 106.67 104.808 106.519 101.96 106.357C101.96 106.027 101.96 105.697 101.96 105.357C103.152 105.297 104.345 105.236 105.573 105.174C107.14 105.089 108.706 105.005 110.272 104.92C111.058 104.881 111.844 104.841 112.653 104.801C113.411 104.759 114.168 104.717 114.948 104.674C115.645 104.637 116.341 104.601 117.059 104.563C119.182 104.402 119.182 104.402 121.96 103.357C123.501 103.314 125.044 103.317 126.585 103.357C128.043 103.395 129.502 103.404 130.96 103.357C131.29 103.027 131.62 102.697 131.96 102.357Z" fill="white"/>
<path d="M259.96 90.3574C261.018 91.9881 262.013 93.6602 262.96 95.3574C264.542 97.1089 264.542 97.1089 265.96 98.3574C264.97 98.8524 264.97 98.8524 263.96 99.3574C260.826 98.2851 257.898 96.8809 254.96 95.3574C254.96 96.0174 254.96 96.6774 254.96 97.3574C253.97 97.6874 252.98 98.0174 251.96 98.3574C251.3 97.6974 250.64 97.0374 249.96 96.3574C251.056 95.3485 252.162 94.3505 253.272 93.3574C253.887 92.8005 254.502 92.2437 255.136 91.6699C256.96 90.3574 256.96 90.3574 259.96 90.3574Z" fill="white"/>
<path d="M308.96 92.3574C310.851 92.5723 310.851 92.5723 312.96 93.3574C314.007 95.4238 314.007 95.4238 314.71 97.9199C314.952 98.7462 315.195 99.5725 315.444 100.424C315.614 101.062 315.785 101.7 315.96 102.357C316.62 102.357 317.28 102.357 317.96 102.357C317.96 103.017 317.96 103.677 317.96 104.357C314.99 104.027 312.02 103.697 308.96 103.357C309.146 102.471 309.331 101.584 309.522 100.67C309.94 97.5056 309.768 95.409 308.96 92.3574Z" fill="white"/>
<path d="M172.96 95.3574C175.397 96.0449 175.397 96.0449 177.96 97.3574C178.29 99.0074 178.62 100.657 178.96 102.357C174.67 102.357 170.38 102.357 165.96 102.357C165.96 101.697 165.96 101.037 165.96 100.357C166.62 100.357 167.28 100.357 167.96 100.357C167.96 99.6974 167.96 99.0374 167.96 98.3574C169.61 98.0274 171.26 97.6974 172.96 97.3574C172.96 96.6974 172.96 96.0374 172.96 95.3574Z" fill="white"/>
<path d="M113.96 59.3571C112.863 59.8998 111.766 60.4425 110.636 61.0017C109.181 61.7242 107.727 62.4469 106.272 63.1696C105.551 63.5261 104.83 63.8825 104.087 64.2497C100.985 65.7936 98.0004 67.3316 95.0654 69.1814C94.3706 69.5694 93.6758 69.9574 92.96 70.3571C92.3 70.0271 91.64 69.6971 90.96 69.3571C91.95 68.3671 92.94 67.3771 93.96 66.3571C92.64 65.6971 91.32 65.0371 89.96 64.3571C91.94 63.6971 93.92 63.0371 95.96 62.3571C96.62 63.0171 97.28 63.6771 97.96 64.3571C100.875 63.2831 102.738 62.579 104.96 60.3571C108.482 58.596 110.227 58.2373 113.96 59.3571Z" fill="white"/>
<path d="M199.335 123.983C203.313 125.492 204.658 126.859 206.96 130.358C205.97 131.018 204.98 131.678 203.96 132.358C202.475 131.599 200.997 130.825 199.522 130.045C198.699 129.616 197.875 129.187 197.026 128.745C194.96 127.358 194.96 127.358 193.96 124.358C195.96 123.358 195.96 123.358 199.335 123.983Z" fill="white"/>
<path d="M73.96 98.3574C76.6 99.3474 79.24 100.337 81.96 101.357C81.96 102.017 81.96 102.677 81.96 103.357C82.589 103.395 83.2181 103.432 83.8662 103.471C89.7705 103.924 94.5125 105.037 99.96 107.357C99.96 107.687 99.96 108.017 99.96 108.357C91.2184 107.971 82.3354 106.274 74.96 101.357C74.96 102.017 74.96 102.677 74.96 103.357C74.3 103.027 73.64 102.697 72.96 102.357C73.29 101.037 73.62 99.7174 73.96 98.3574Z" fill="white"/>
<path d="M293.397 2.04492C294.531 2.00754 295.664 1.97016 296.831 1.93164C300.549 2.43753 301.653 3.48376 303.96 6.35742C296.894 6.49537 289.986 6.10548 282.96 5.35742C284.945 1.38667 289.445 2.13016 293.397 2.04492Z" fill="white"/>
<path d="M319.96 84.3574C323.96 84.3574 323.96 84.3574 326.272 86.0449C327.96 88.3574 327.96 88.3574 327.835 90.9824C326.96 93.3574 326.96 93.3574 324.96 95.3574C321.96 94.3574 321.96 94.3574 320.772 92.6699C319.767 89.8077 319.823 87.3691 319.96 84.3574ZM321.96 87.3574C322.29 89.0074 322.62 90.6574 322.96 92.3574C323.29 92.3574 323.62 92.3574 323.96 92.3574C323.96 90.7074 323.96 89.0574 323.96 87.3574C323.3 87.3574 322.64 87.3574 321.96 87.3574Z" fill="white"/>
<path d="M40.96 41.3574C42.1325 42.3086 43.2978 43.2686 44.46 44.2324C45.4345 45.0329 45.4345 45.0329 46.4287 45.8496C46.934 46.3472 47.4393 46.8448 47.96 47.3574C47.96 48.0174 47.96 48.6774 47.96 49.3574C50.435 50.3474 50.435 50.3474 52.96 51.3574C52.63 52.6774 52.3 53.9974 51.96 55.3574C42.7573 48.8575 42.7573 48.8575 39.96 44.3574C40.29 43.3674 40.62 42.3774 40.96 41.3574Z" fill="white"/>
<path d="M153.96 102.357C154.29 103.017 154.62 103.677 154.96 104.357C153.091 105.204 151.214 106.034 149.335 106.857C147.769 107.554 147.769 107.554 146.171 108.264C142.849 109.395 140.441 109.637 136.96 109.357C136.3 109.027 135.64 108.697 134.96 108.357C133.253 108.287 131.543 108.273 129.835 108.295C128.925 108.304 128.015 108.313 127.077 108.322C126.029 108.34 126.029 108.34 124.96 108.357C126.96 106.357 126.96 106.357 129.272 106.127C130.603 106.148 130.603 106.148 131.96 106.17C133.29 106.18 133.29 106.18 134.647 106.189C136.96 106.357 136.96 106.357 138.96 107.357C141.152 107.114 141.152 107.114 143.522 106.545C144.328 106.373 145.134 106.202 145.964 106.025C148.156 105.553 148.156 105.553 148.96 103.357C151.522 102.732 151.522 102.732 153.96 102.357Z" fill="white"/>
<path d="M562.96 116.357C566.299 116.695 568.228 118.126 570.71 120.295C571.324 120.82 571.937 121.344 572.569 121.885C573.96 123.357 573.96 123.357 573.96 125.357C570.826 126.402 569.97 126.292 566.96 125.357C567.29 124.037 567.62 122.717 567.96 121.357C566.97 120.697 565.98 120.037 564.96 119.357C563.97 119.852 563.97 119.852 562.96 120.357C562.308 122.382 562.308 122.382 561.96 124.357C560.96 123.357 560.96 123.357 560.772 120.92C560.96 118.357 560.96 118.357 562.96 116.357Z" fill="white"/>
<path d="M267.96 43.3574C271.297 44.53 273.734 45.5461 275.96 48.3574C275.96 49.0174 275.96 49.6774 275.96 50.3574C276.532 50.4799 277.105 50.6023 277.694 50.7285C280.059 51.3851 282.032 52.2947 284.21 53.4199C284.916 53.7821 285.623 54.1444 286.351 54.5176C286.882 54.7947 287.413 55.0719 287.96 55.3574C287.96 56.0174 287.96 56.6774 287.96 57.3574C288.95 57.6874 289.94 58.0174 290.96 58.3574C290.63 59.0174 290.3 59.6774 289.96 60.3574C273.247 50.4125 273.247 50.4125 267.96 45.3574C267.96 44.6974 267.96 44.0374 267.96 43.3574Z" fill="white"/>
<path d="M130.96 36.3574C131.95 36.3574 132.94 36.3574 133.96 36.3574C136.147 39.3574 136.147 39.3574 137.96 42.3574C136.397 44.7949 136.397 44.7949 133.96 47.3574C130.21 48.1699 130.21 48.1699 126.96 48.3574C127.599 48.1305 128.239 47.9037 128.897 47.6699C131.17 46.5225 131.17 46.5225 131.772 44.0449C131.967 41.2603 131.653 39.0512 130.96 36.3574Z" fill="white"/>
<path d="M279.96 32.1699C281.012 32.1557 282.064 32.1416 283.147 32.127C285.96 32.3574 285.96 32.3574 288.96 34.3574C285.66 36.0072 281.969 35.74 278.335 35.9199C277.533 35.9631 276.731 36.0063 275.905 36.0508C273.924 36.1569 271.942 36.2577 269.96 36.3574C270.29 35.3674 270.62 34.3774 270.96 33.3574C274.168 32.2882 276.59 32.1906 279.96 32.1699Z" fill="white"/>
<path d="M234.96 124.357C235.29 125.017 235.62 125.677 235.96 126.357C236.62 126.357 237.28 126.357 237.96 126.357C237.9 127.817 237.811 129.275 237.71 130.732C237.664 131.545 237.617 132.357 237.569 133.193C236.96 135.357 236.96 135.357 234.913 136.646C233.946 136.998 233.946 136.998 232.96 137.357C232.026 134.347 231.915 133.491 232.96 130.357C232.63 130.027 232.3 129.697 231.96 129.357C232.95 127.707 233.94 126.057 234.96 124.357Z" fill="white"/>
<path d="M224.96 88.3574C227.842 88.9979 229.527 89.7047 231.183 92.2012C233.96 97.6961 233.96 97.6961 233.96 100.357C234.62 100.357 235.28 100.357 235.96 100.357C236.29 98.7074 236.62 97.0574 236.96 95.3574C237.95 95.3574 238.94 95.3574 239.96 95.3574C238.64 97.6674 237.32 99.9774 235.96 102.357C232.266 101.126 232.099 100.229 230.397 96.8574C228.844 93.4548 228.844 93.4548 225.96 91.3574C224.97 91.6874 223.98 92.0174 222.96 92.3574C223.62 91.0374 224.28 89.7174 224.96 88.3574Z" fill="white"/>
<path d="M251.96 110.357C251.96 110.687 251.96 111.017 251.96 111.357C251.055 111.56 251.055 111.56 250.132 111.768C245.842 112.923 242.779 113.761 240.46 117.732C239.236 120.691 238.343 123.195 237.96 126.357C237.63 126.357 237.3 126.357 236.96 126.357C236.626 120.905 237.068 117.057 239.96 112.357C244.005 109.849 247.375 108.88 251.96 110.357Z" fill="white"/>
<path d="M145.522 91.107C146.308 91.2669 147.093 91.4267 147.901 91.5914C149.96 92.357 149.96 92.357 151.96 95.357C150.97 95.852 150.97 95.852 149.96 96.357C149.96 95.697 149.96 95.037 149.96 94.357C144.973 93.4292 140.827 92.7347 135.96 94.357C136.29 95.347 136.62 96.337 136.96 97.357C135.97 97.687 134.98 98.017 133.96 98.357C133.3 99.347 132.64 100.337 131.96 101.357C132.374 96.523 134.338 94.4617 137.96 91.357C141.167 90.2882 142.31 90.4085 145.522 91.107Z" fill="white"/>
<path d="M479.96 67.3574C481.835 67.5449 481.835 67.5449 483.96 68.3574C485.272 70.7949 485.272 70.7949 485.96 73.3574C485.63 74.0174 485.3 74.6774 484.96 75.3574C483.294 75.4001 481.626 75.3981 479.96 75.3574C479.63 75.0274 479.3 74.6974 478.96 74.3574C479.247 72.018 479.579 69.6835 479.96 67.3574Z" fill="white"/>
<path d="M148.96 99.3574C149.62 100.677 150.28 101.997 150.96 103.357C147.287 105.806 144.413 107.357 139.96 107.357C139.96 106.697 139.96 106.037 139.96 105.357C140.62 105.027 141.28 104.697 141.96 104.357C141.63 103.037 141.3 101.717 140.96 100.357C142.094 100.378 143.229 100.399 144.397 100.42C147.776 100.773 147.776 100.773 148.96 99.3574Z" fill="white"/>
<path d="M448.96 103.357C455.161 103.081 460.892 104.128 466.96 105.357C466.96 106.017 466.96 106.677 466.96 107.357C460.6 107.559 455.108 106.985 448.96 105.357C448.96 104.697 448.96 104.037 448.96 103.357Z" fill="white"/>
<path d="M360.647 86.7324C361.411 86.9387 362.174 87.1449 362.96 87.3574C362.094 87.7287 362.094 87.7287 361.21 88.1074C357.87 89.9628 355.613 92.3178 353.585 95.5449C351.96 97.3574 351.96 97.3574 348.897 98.2324C347.928 98.2737 346.959 98.3149 345.96 98.3574C345.3 97.6974 344.64 97.0374 343.96 96.3574C345.218 96.1512 346.476 95.9449 347.772 95.7324C349.987 95.2579 349.987 95.2579 351.96 94.3574C353.836 91.4403 353.836 91.4403 354.96 88.3574C357.96 86.3574 357.96 86.3574 360.647 86.7324Z" fill="white"/>
<path d="M266.96 8.35759C266.382 8.70822 265.805 9.05884 265.21 9.42009C263.057 11.2738 262.168 12.5421 260.835 14.9826C258.96 18.3576 258.96 18.3576 256.96 19.3576C257.166 18.7388 257.372 18.1201 257.585 17.4826C257.709 16.7813 257.832 16.0801 257.96 15.3576C257.3 14.6976 256.64 14.0376 255.96 13.3576C262.207 6.77318 262.207 6.77318 266.96 8.35759Z" fill="white"/>
<path d="M313.96 9.35742C320.858 11.2166 326.204 14.1526 331.96 18.3574C331.63 19.3474 331.3 20.3374 330.96 21.3574C330.498 20.9707 330.037 20.584 329.562 20.1855C324.371 16.0413 319.217 13.5371 312.96 11.3574C313.29 10.6974 313.62 10.0374 313.96 9.35742Z" fill="white"/>
<path d="M47.96 54.3574C52.3704 55.7086 54.1256 57.4128 56.6475 61.2324C57.2288 62.0961 57.8102 62.9598 58.4092 63.8496C61.1445 68.273 61.1445 68.273 61.96 70.3574C61.63 71.3474 61.3 72.3374 60.96 73.3574C60.3567 72.4048 59.7534 71.4522 59.1318 70.4707C58.3247 69.2037 57.5174 67.9368 56.71 66.6699C56.3142 66.0441 55.9185 65.4182 55.5107 64.7734C53.1794 61.1235 50.7388 57.6907 47.96 54.3574Z" fill="white"/>
<path d="M133.96 36.3574C135.897 37.0449 135.897 37.0449 137.96 38.3574C139.022 40.6074 139.022 40.6074 138.96 43.3574C136.127 47.6075 133.988 49.9208 128.96 51.3574C129.147 49.4824 129.147 49.4824 129.96 47.3574C131.621 46.6761 133.288 46.01 134.96 45.3574C136.304 43.3401 136.304 43.3401 136.96 41.3574C136.217 40.6768 136.217 40.6768 135.46 39.9824C133.96 38.3574 133.96 38.3574 133.96 36.3574Z" fill="white"/>
<path d="M358.96 131.358C355.42 133.717 352.969 133.944 348.772 134.483C347.5 134.65 346.228 134.818 344.917 134.99C343.941 135.112 342.965 135.233 341.96 135.358C341.63 134.368 341.3 133.378 340.96 132.358C341.95 132.399 342.94 132.44 343.96 132.483C346.892 132.5 349.386 132.074 352.21 131.295C355.96 130.358 355.96 130.358 358.96 131.358Z" fill="white"/>
<path d="M360.96 89.3574C364.96 93.9824 364.96 93.9824 364.96 97.3574C363.64 97.3574 362.32 97.3574 360.96 97.3574C360.63 96.3674 360.3 95.3774 359.96 94.3574C358.97 94.3574 357.98 94.3574 356.96 94.3574C356.63 93.6974 356.3 93.0374 355.96 92.3574C357.61 91.3674 359.26 90.3774 360.96 89.3574Z" fill="white"/>
<path d="M222.96 93.3574C223.62 93.3574 224.28 93.3574 224.96 93.3574C225.372 94.5537 225.785 95.7499 226.21 96.9824C227.664 100.892 229.517 103.988 231.96 107.357C230.97 108.017 229.98 108.677 228.96 109.357C228.877 108.801 228.795 108.244 228.71 107.67C228.068 105.179 228.068 105.179 225.96 103.045C223.54 99.7929 223.273 97.3472 222.96 93.3574Z" fill="white"/>
<path d="M276.96 91.357C277.29 93.337 277.62 95.317 277.96 97.357C275.98 96.697 274 96.037 271.96 95.357C271.96 94.697 271.96 94.037 271.96 93.357C270.97 92.697 269.98 92.037 268.96 91.357C272.25 90.2604 273.673 90.5574 276.96 91.357Z" fill="white"/>
<path d="M244.96 93.3571C244.454 95.5259 243.96 97.3568 242.96 99.3571C241.64 99.0271 240.32 98.6971 238.96 98.3571C238.96 96.7071 238.96 95.0571 238.96 93.3571C241.451 92.1117 242.371 92.5804 244.96 93.3571Z" fill="white"/>
<path d="M237.96 116.357C237.96 119.768 237.469 122.988 236.96 126.357C235.64 126.687 234.32 127.017 232.96 127.357C231.895 124.162 231.683 123.367 232.96 120.357C235.523 118.107 235.523 118.107 237.96 116.357Z" fill="white"/>
<path d="M215.96 141.357C216.62 141.357 217.28 141.357 217.96 141.357C218.085 147.107 218.085 147.107 216.96 149.357C214.96 149.4 212.96 149.398 210.96 149.357C209.96 148.357 209.96 148.357 209.897 145.795C209.918 144.991 209.939 144.186 209.96 143.357C212.435 145.337 212.435 145.337 214.96 147.357C215.29 145.377 215.62 143.397 215.96 141.357Z" fill="white"/>
<path d="M394.71 92.6698C395.824 93.0101 395.824 93.0101 396.96 93.3573C397.29 94.3473 397.62 95.3373 397.96 96.3573C394.023 97.6695 391.835 96.6002 387.96 95.3573C390.415 93.0842 391.298 92.282 394.71 92.6698Z" fill="white"/>
<path d="M484.96 101.357C486.94 102.017 488.92 102.677 490.96 103.357C488.96 105.357 488.96 105.357 486.358 105.553C485.361 105.53 484.363 105.506 483.335 105.482C481.831 105.455 481.831 105.455 480.296 105.428C479.525 105.405 478.754 105.381 477.96 105.357C478.29 104.697 478.62 104.037 478.96 103.357C480.94 103.357 482.92 103.357 484.96 103.357C484.96 102.697 484.96 102.037 484.96 101.357Z" fill="white"/>
<path d="M225.96 90.3574C227.28 91.6774 228.6 92.9974 229.96 94.3574C229.3 95.6774 228.64 96.9974 227.96 98.3574C226.97 98.0274 225.98 97.6974 224.96 97.3574C224.96 96.0374 224.96 94.7174 224.96 93.3574C224.3 93.0274 223.64 92.6974 222.96 92.3574C223.95 91.6974 224.94 91.0374 225.96 90.3574Z" fill="white"/>
<path d="M122.147 50.7326C123.045 51.042 123.045 51.042 123.96 51.3576C122.97 51.6876 121.98 52.0176 120.96 52.3576C120.96 53.0176 120.96 53.6776 120.96 54.3576C118.147 55.9201 118.147 55.9201 114.96 57.3576C113.97 57.0276 112.98 56.6976 111.96 56.3576C119.465 50.2727 119.465 50.2727 122.147 50.7326Z" fill="white"/>
<path d="M26.96 24.3574C28.092 25.2654 29.2153 26.1843 30.335 27.1074C30.9614 27.6179 31.5879 28.1284 32.2334 28.6543C34.0431 30.4394 34.9611 32.0369 35.96 34.3574C34.97 34.6874 33.98 35.0174 32.96 35.3574C31.9512 34.0935 30.9532 32.821 29.96 31.5449C29.4031 30.8372 28.8462 30.1295 28.2725 29.4004C26.96 27.3574 26.96 27.3574 26.96 24.3574Z" fill="white"/>
<path d="M416.96 82.3574C418.635 82.6435 420.304 82.9752 421.96 83.3574C422.29 84.3474 422.62 85.3374 422.96 86.3574C419.95 87.2917 419.093 87.4019 415.96 86.3574C413.322 86.7514 413.322 86.7514 410.96 87.3574C411.764 86.718 412.569 86.0787 413.397 85.4199C415.235 83.9514 415.235 83.9514 416.96 82.3574Z" fill="white"/>
<path d="M56.96 57.3574C60.96 61.8574 60.96 61.8574 60.96 66.3574C60.3 66.3574 59.64 66.3574 58.96 66.3574C56.98 62.8924 56.98 62.8924 54.96 59.3574C55.62 58.6974 56.28 58.0374 56.96 57.3574Z" fill="white"/>
<path d="M200.96 130.357C204.462 131.758 205.425 132.98 206.96 136.357C207.795 137.1 207.795 137.1 208.647 137.857C209.081 138.352 209.514 138.847 209.96 139.357C209.542 141.451 209.542 141.451 208.96 143.357C206.254 139.047 203.558 134.734 200.96 130.357Z" fill="white"/>
<path d="M250.96 103.357C253.6 103.357 256.24 103.357 258.96 103.357C259.29 104.347 259.62 105.337 259.96 106.357C256.265 107.308 253.655 107.308 249.96 106.357C250.29 105.367 250.62 104.377 250.96 103.357Z" fill="white"/>
<path d="M562.96 124.357C563.62 124.357 564.28 124.357 564.96 124.357C565.62 125.347 566.28 126.337 566.96 127.357C567.62 126.697 568.28 126.037 568.96 125.357C569.29 127.007 569.62 128.657 569.96 130.357C568.64 130.687 567.32 131.017 565.96 131.357C562.96 126.607 562.96 126.607 562.96 124.357Z" fill="white"/>
<path d="M259.96 54.3574C262.343 56.3068 262.997 57.4743 263.96 60.4824C264.29 61.4312 264.62 62.3799 264.96 63.3574C265.95 63.6874 266.94 64.0174 267.96 64.3574C267.96 65.0174 267.96 65.6774 267.96 66.3574C264.709 65.3125 263.391 63.7661 261.71 60.9199C259.96 57.3574 259.96 57.3574 259.96 54.3574Z" fill="white"/>
<path d="M18.96 18.3574C20.28 18.6874 21.6 19.0174 22.96 19.3574C23.29 21.6674 23.62 23.9774 23.96 26.3574C22.97 26.0274 21.98 25.6974 20.96 25.3574C20.96 24.6974 20.96 24.0374 20.96 23.3574C20.3 23.3574 19.64 23.3574 18.96 23.3574C18.96 21.7074 18.96 20.0574 18.96 18.3574Z" fill="white"/>
<path d="M405.96 128.357C406.95 128.357 407.94 128.357 408.96 128.357C408.816 128.894 408.671 129.43 408.522 129.982C407.865 132.757 407.408 135.543 406.96 138.357C406.3 138.357 405.64 138.357 404.96 138.357C404.835 130.607 404.835 130.607 405.96 128.357Z" fill="white"/>
<path d="M339.96 97.3574C341.28 97.6874 342.6 98.0174 343.96 98.3574C343.63 99.6774 343.3 100.997 342.96 102.357C341.31 102.027 339.66 101.697 337.96 101.357C338.62 100.037 339.28 98.7174 339.96 97.3574Z" fill="white"/>
<path d="M260.96 103.357C261.29 104.677 261.62 105.997 261.96 107.357C256.545 110.434 256.545 110.434 253.585 110.045C253.049 109.818 252.512 109.591 251.96 109.357C257.71 106.357 257.71 106.357 259.96 106.357C260.29 105.367 260.62 104.377 260.96 103.357Z" fill="white"/>
<path d="M307.96 97.3574C307.96 98.0174 307.96 98.6774 307.96 99.3574C301.674 101.786 301.674 101.786 297.96 100.357C298.29 99.6974 298.62 99.0374 298.96 98.3574C301.98 97.8083 304.886 97.3574 307.96 97.3574Z" fill="white"/>
<path d="M253.96 92.3574C256.21 92.6074 256.21 92.6074 257.96 93.3574C257.96 94.0174 257.96 94.6774 257.96 95.3574C256.97 95.3574 255.98 95.3574 254.96 95.3574C254.96 96.0174 254.96 96.6774 254.96 97.3574C253.97 97.6874 252.98 98.0174 251.96 98.3574C251.3 97.6974 250.64 97.0374 249.96 96.3574C251.71 94.2949 251.71 94.2949 253.96 92.3574Z" fill="white"/>
<path d="M423.96 85.3574C424.62 85.3574 425.28 85.3574 425.96 85.3574C426.29 87.9974 426.62 90.6374 426.96 93.3574C425.31 91.7074 423.66 90.0574 421.96 88.3574C422.62 87.3674 423.28 86.3774 423.96 85.3574Z" fill="white"/>
<path d="M480.96 70.3574C482.28 70.3574 483.6 70.3574 484.96 70.3574C485.29 71.3474 485.62 72.3374 485.96 73.3574C485.63 74.0174 485.3 74.6774 484.96 75.3574C483.31 75.3574 481.66 75.3574 479.96 75.3574C479.96 74.6974 479.96 74.0374 479.96 73.3574C480.62 73.3574 481.28 73.3574 481.96 73.3574C481.63 72.3674 481.3 71.3774 480.96 70.3574Z" fill="white"/>
<path d="M291.96 58.3574C294.435 59.3474 294.435 59.3474 296.96 60.3574C296.96 61.0174 296.96 61.6774 296.96 62.3574C297.95 62.3574 298.94 62.3574 299.96 62.3574C300.29 63.6774 300.62 64.9974 300.96 66.3574C297.99 64.7074 295.02 63.0574 291.96 61.3574C291.96 60.3674 291.96 59.3774 291.96 58.3574Z" fill="white"/>
<path d="M330.96 51.3574C331.62 52.6774 332.28 53.9974 332.96 55.3574C331.64 56.6774 330.32 57.9974 328.96 59.3574C328.3 59.0274 327.64 58.6974 326.96 58.3574C327.62 56.7074 328.28 55.0574 328.96 53.3574C329.62 53.3574 330.28 53.3574 330.96 53.3574C330.96 52.6974 330.96 52.0374 330.96 51.3574Z" fill="white"/>
<path d="M546.96 117.357C547.95 117.687 548.94 118.017 549.96 118.357C550.647 120.42 550.647 120.42 550.96 122.357C549.31 122.027 547.66 121.697 545.96 121.357C545.96 118.357 545.96 118.357 546.96 117.357Z" fill="white"/>
<path d="M357.96 130.357C361.26 130.357 364.56 130.357 367.96 130.357C366.96 132.357 366.96 132.357 365.21 133.107C362.316 133.429 360.559 132.585 357.96 131.357C357.96 131.027 357.96 130.697 357.96 130.357Z" fill="white"/>
<path d="M500.96 103.357C497.695 105.241 494.679 105.85 490.96 106.357C491.29 105.367 491.62 104.377 491.96 103.357C495.029 101.823 497.661 102.808 500.96 103.357Z" fill="white"/>
<path d="M74.96 106.357C75.29 106.357 75.62 106.357 75.96 106.357C75.96 110.647 75.96 114.937 75.96 119.357C74.97 119.852 74.97 119.852 73.96 120.357C73.63 119.367 73.3 118.377 72.96 117.357C73.29 117.027 73.62 116.697 73.96 116.357C74.1928 114.676 74.3726 112.986 74.5225 111.295C74.6062 110.376 74.69 109.457 74.7764 108.51C74.837 107.799 74.8975 107.089 74.96 106.357Z" fill="white"/>
<path d="M258.147 101.295C259.045 101.821 259.045 101.821 259.96 102.358C259.96 103.348 259.96 104.338 259.96 105.358C255.505 104.368 255.505 104.368 250.96 103.358C253.427 100.891 254.804 99.862 258.147 101.295Z" fill="white"/>
<path d="M156.96 91.3574C157.95 91.6874 158.94 92.0174 159.96 92.3574C159.96 94.0074 159.96 95.6574 159.96 97.3574C159.63 96.6974 159.3 96.0374 158.96 95.3574C157.31 95.3574 155.66 95.3574 153.96 95.3574C154.29 94.3674 154.62 93.3774 154.96 92.3574C155.62 92.0274 156.28 91.6974 156.96 91.3574Z" fill="white"/>
<path d="M317.96 8.357C317.3 9.017 316.64 9.677 315.96 10.357C312.947 9.96822 311.563 9.09243 308.96 7.357C312.161 5.75668 314.683 7.32526 317.96 8.357Z" fill="white"/>
</svg>
